<?xml version="1.0" encoding="utf-8" standalone="no"?>
<!DOCTYPE svg PUBLIC "-//W3C//DTD SVG 1.1//EN"
  "http://www.w3.org/Graphics/SVG/1.1/DTD/svg11.dtd">
<svg xmlns:xlink="http://www.w3.org/1999/xlink" width="1382.4pt" height="702pt" viewBox="0 0 1382.4 702" xmlns="http://www.w3.org/2000/svg" version="1.1">
 <metadata>
  <rdf:RDF xmlns:dc="http://purl.org/dc/elements/1.1/" xmlns:cc="http://creativecommons.org/ns#" xmlns:rdf="http://www.w3.org/1999/02/22-rdf-syntax-ns#">
   <cc:Work>
    <dc:type rdf:resource="http://purl.org/dc/dcmitype/StillImage"/>
    <dc:date>2022-11-22T16:53:38.237402</dc:date>
    <dc:format>image/svg+xml</dc:format>
    <dc:creator>
     <cc:Agent>
      <dc:title>Matplotlib v3.6.2, https://matplotlib.org/</dc:title>
     </cc:Agent>
    </dc:creator>
   </cc:Work>
  </rdf:RDF>
 </metadata>
 <defs>
  <style type="text/css">*{stroke-linejoin: round; stroke-linecap: butt}</style>
 </defs>
 <g id="figure_1">
  <g id="patch_1">
   <path d="M 0 702 
L 1382.4 702 
L 1382.4 0 
L 0 0 
z
" style="fill: #ffffff"/>
  </g>
  <g id="axes_1">
   <g id="patch_2">
    <path d="M 172.8 624.78 
L 1244.16 624.78 
L 1244.16 84.24 
L 172.8 84.24 
z
" style="fill: #ffffff"/>
   </g>
   <g id="line2d_1">
    <path d="M 221.498182 157.770485 
L 286.429091 131.039559 
L 351.36 124.44911 
L 416.290909 447.54181 
L 481.221818 424.572262 
L 546.152727 451.68897 
L 611.083636 299.441008 
L 676.014545 446.526261 
L 740.945455 443.922231 
L 805.876364 232.717313 
L 870.807273 298.572998 
L 935.738182 108.81 
L 1000.669091 418.749934 
L 1065.6 550.580137 
L 1130.530909 485.932319 
L 1195.461818 438.913949 
" clip-path="url(#p0e1e297c2c)" style="fill: none; stroke: #1f77b4; stroke-linecap: square"/>
   </g>
   <g id="line2d_2">
    <path d="M 221.498182 587.916059 
L 286.429091 446.048052 
L 351.36 499.54435 
L 416.290909 557.301475 
L 481.221818 600.21 
L 546.152727 530.506826 
L 611.083636 406.060451 
L 676.014545 453.924441 
L 740.945455 534.625856 
L 805.876364 459.377061 
L 870.807273 362.382084 
L 935.738182 540.587112 
L 1000.669091 397.167364 
L 1065.6 535.080528 
L 1130.530909 467.630047 
L 1195.461818 477.360144 
" clip-path="url(#p0e1e297c2c)" style="fill: none; stroke: #ff7f0e; stroke-linecap: square"/>
   </g>
   <g id="line2d_3">
    <path d="M 221.498182 560.782702 
L 286.429091 587.739816 
L 351.36 541.447085 
L 416.290909 478.135727 
L 481.221818 482.51539 
L 546.152727 355.665912 
L 611.083636 559.897469 
L 676.014545 475.554659 
L 740.945455 293.626717 
L 805.876364 391.946673 
L 870.807273 413.666448 
L 935.738182 515.078403 
L 1000.669091 328.563555 
L 1065.6 399.267352 
L 1130.530909 316.097389 
L 1195.461818 431.938867 
" clip-path="url(#p0e1e297c2c)" style="fill: none; stroke: #2ca02c; stroke-linecap: square"/>
   </g>
   <g id="line2d_4">
    <path d="M 221.498182 385.476782 
L 286.429091 325.241349 
L 351.36 229.833131 
L 416.290909 254.798185 
L 481.221818 472.889202 
L 546.152727 389.800185 
L 611.083636 349.357911 
L 676.014545 563.18236 
L 740.945455 467.604788 
L 805.876364 262.920281 
L 870.807273 409.919996 
L 935.738182 427.405351 
L 1000.669091 404.514451 
L 1065.6 462.924307 
L 1130.530909 419.9423 
L 1195.461818 181.651674 
" clip-path="url(#p0e1e297c2c)" style="fill: none; stroke: #d62728; stroke-linecap: square"/>
   </g>
   <g id="line2d_5">
    <path d="M 221.498182 307.858755 
L 286.429091 447.308159 
L 351.36 461.330658 
L 416.290909 284.839836 
L 481.221818 366.940286 
L 546.152727 361.123124 
L 611.083636 334.12238 
L 676.014545 425.693441 
L 740.945455 405.364665 
L 805.876364 457.331037 
L 870.807273 405.838281 
L 935.738182 444.646721 
L 1000.669091 442.837218 
L 1065.6 366.492502 
L 1130.530909 376.226617 
L 1195.461818 392.851999 
" clip-path="url(#p0e1e297c2c)" style="fill: none; stroke: #9467bd; stroke-linecap: square"/>
   </g>
   <g id="matplotlib.axis_1">
    <g id="xtick_1">
     <g id="line2d_6">
      <path d="M 221.498182 624.78 
L 221.498182 84.24 
" clip-path="url(#p0e1e297c2c)" style="fill: none; stroke: #b0b0b0; stroke-width: 0.8; stroke-linecap: square"/>
     </g>
     <g id="line2d_7">
      <defs>
       <path id="mafd4c42f87" d="M 0 0 
L 0 3.5 
" style="stroke: #000000; stroke-width: 0.8"/>
      </defs>
      <g>
       <use xlink:href="#mafd4c42f87" x="221.498182" y="624.78" style="stroke: #000000; stroke-width: 0.8"/>
      </g>
     </g>
     <g id="text_1">
      <!-- 1 -->
      <g transform="translate(218.316932 639.378438) scale(0.1 -0.1)">
       <defs>
        <path id="DejaVuSans-31" d="M 794 531 
L 1825 531 
L 1825 4091 
L 703 3866 
L 703 4441 
L 1819 4666 
L 2450 4666 
L 2450 531 
L 3481 531 
L 3481 0 
L 794 0 
L 794 531 
z
" transform="scale(0.015625)"/>
       </defs>
       <use xlink:href="#DejaVuSans-31"/>
      </g>
     </g>
    </g>
    <g id="xtick_2">
     <g id="line2d_8">
      <path d="M 286.429091 624.78 
L 286.429091 84.24 
" clip-path="url(#p0e1e297c2c)" style="fill: none; stroke: #b0b0b0; stroke-width: 0.8; stroke-linecap: square"/>
     </g>
     <g id="line2d_9">
      <g>
       <use xlink:href="#mafd4c42f87" x="286.429091" y="624.78" style="stroke: #000000; stroke-width: 0.8"/>
      </g>
     </g>
     <g id="text_2">
      <!-- 2 -->
      <g transform="translate(283.247841 639.378438) scale(0.1 -0.1)">
       <defs>
        <path id="DejaVuSans-32" d="M 1228 531 
L 3431 531 
L 3431 0 
L 469 0 
L 469 531 
Q 828 903 1448 1529 
Q 2069 2156 2228 2338 
Q 2531 2678 2651 2914 
Q 2772 3150 2772 3378 
Q 2772 3750 2511 3984 
Q 2250 4219 1831 4219 
Q 1534 4219 1204 4116 
Q 875 4013 500 3803 
L 500 4441 
Q 881 4594 1212 4672 
Q 1544 4750 1819 4750 
Q 2544 4750 2975 4387 
Q 3406 4025 3406 3419 
Q 3406 3131 3298 2873 
Q 3191 2616 2906 2266 
Q 2828 2175 2409 1742 
Q 1991 1309 1228 531 
z
" transform="scale(0.015625)"/>
       </defs>
       <use xlink:href="#DejaVuSans-32"/>
      </g>
     </g>
    </g>
    <g id="xtick_3">
     <g id="line2d_10">
      <path d="M 351.36 624.78 
L 351.36 84.24 
" clip-path="url(#p0e1e297c2c)" style="fill: none; stroke: #b0b0b0; stroke-width: 0.8; stroke-linecap: square"/>
     </g>
     <g id="line2d_11">
      <g>
       <use xlink:href="#mafd4c42f87" x="351.36" y="624.78" style="stroke: #000000; stroke-width: 0.8"/>
      </g>
     </g>
     <g id="text_3">
      <!-- 3 -->
      <g transform="translate(348.17875 639.378438) scale(0.1 -0.1)">
       <defs>
        <path id="DejaVuSans-33" d="M 2597 2516 
Q 3050 2419 3304 2112 
Q 3559 1806 3559 1356 
Q 3559 666 3084 287 
Q 2609 -91 1734 -91 
Q 1441 -91 1130 -33 
Q 819 25 488 141 
L 488 750 
Q 750 597 1062 519 
Q 1375 441 1716 441 
Q 2309 441 2620 675 
Q 2931 909 2931 1356 
Q 2931 1769 2642 2001 
Q 2353 2234 1838 2234 
L 1294 2234 
L 1294 2753 
L 1863 2753 
Q 2328 2753 2575 2939 
Q 2822 3125 2822 3475 
Q 2822 3834 2567 4026 
Q 2313 4219 1838 4219 
Q 1578 4219 1281 4162 
Q 984 4106 628 3988 
L 628 4550 
Q 988 4650 1302 4700 
Q 1616 4750 1894 4750 
Q 2613 4750 3031 4423 
Q 3450 4097 3450 3541 
Q 3450 3153 3228 2886 
Q 3006 2619 2597 2516 
z
" transform="scale(0.015625)"/>
       </defs>
       <use xlink:href="#DejaVuSans-33"/>
      </g>
     </g>
    </g>
    <g id="xtick_4">
     <g id="line2d_12">
      <path d="M 416.290909 624.78 
L 416.290909 84.24 
" clip-path="url(#p0e1e297c2c)" style="fill: none; stroke: #b0b0b0; stroke-width: 0.8; stroke-linecap: square"/>
     </g>
     <g id="line2d_13">
      <g>
       <use xlink:href="#mafd4c42f87" x="416.290909" y="624.78" style="stroke: #000000; stroke-width: 0.8"/>
      </g>
     </g>
     <g id="text_4">
      <!-- 4 -->
      <g transform="translate(413.109659 639.378438) scale(0.1 -0.1)">
       <defs>
        <path id="DejaVuSans-34" d="M 2419 4116 
L 825 1625 
L 2419 1625 
L 2419 4116 
z
M 2253 4666 
L 3047 4666 
L 3047 1625 
L 3713 1625 
L 3713 1100 
L 3047 1100 
L 3047 0 
L 2419 0 
L 2419 1100 
L 313 1100 
L 313 1709 
L 2253 4666 
z
" transform="scale(0.015625)"/>
       </defs>
       <use xlink:href="#DejaVuSans-34"/>
      </g>
     </g>
    </g>
    <g id="xtick_5">
     <g id="line2d_14">
      <path d="M 481.221818 624.78 
L 481.221818 84.24 
" clip-path="url(#p0e1e297c2c)" style="fill: none; stroke: #b0b0b0; stroke-width: 0.8; stroke-linecap: square"/>
     </g>
     <g id="line2d_15">
      <g>
       <use xlink:href="#mafd4c42f87" x="481.221818" y="624.78" style="stroke: #000000; stroke-width: 0.8"/>
      </g>
     </g>
     <g id="text_5">
      <!-- 5 -->
      <g transform="translate(478.040568 639.378438) scale(0.1 -0.1)">
       <defs>
        <path id="DejaVuSans-35" d="M 691 4666 
L 3169 4666 
L 3169 4134 
L 1269 4134 
L 1269 2991 
Q 1406 3038 1543 3061 
Q 1681 3084 1819 3084 
Q 2600 3084 3056 2656 
Q 3513 2228 3513 1497 
Q 3513 744 3044 326 
Q 2575 -91 1722 -91 
Q 1428 -91 1123 -41 
Q 819 9 494 109 
L 494 744 
Q 775 591 1075 516 
Q 1375 441 1709 441 
Q 2250 441 2565 725 
Q 2881 1009 2881 1497 
Q 2881 1984 2565 2268 
Q 2250 2553 1709 2553 
Q 1456 2553 1204 2497 
Q 953 2441 691 2322 
L 691 4666 
z
" transform="scale(0.015625)"/>
       </defs>
       <use xlink:href="#DejaVuSans-35"/>
      </g>
     </g>
    </g>
    <g id="xtick_6">
     <g id="line2d_16">
      <path d="M 546.152727 624.78 
L 546.152727 84.24 
" clip-path="url(#p0e1e297c2c)" style="fill: none; stroke: #b0b0b0; stroke-width: 0.8; stroke-linecap: square"/>
     </g>
     <g id="line2d_17">
      <g>
       <use xlink:href="#mafd4c42f87" x="546.152727" y="624.78" style="stroke: #000000; stroke-width: 0.8"/>
      </g>
     </g>
     <g id="text_6">
      <!-- 6 -->
      <g transform="translate(542.971477 639.378438) scale(0.1 -0.1)">
       <defs>
        <path id="DejaVuSans-36" d="M 2113 2584 
Q 1688 2584 1439 2293 
Q 1191 2003 1191 1497 
Q 1191 994 1439 701 
Q 1688 409 2113 409 
Q 2538 409 2786 701 
Q 3034 994 3034 1497 
Q 3034 2003 2786 2293 
Q 2538 2584 2113 2584 
z
M 3366 4563 
L 3366 3988 
Q 3128 4100 2886 4159 
Q 2644 4219 2406 4219 
Q 1781 4219 1451 3797 
Q 1122 3375 1075 2522 
Q 1259 2794 1537 2939 
Q 1816 3084 2150 3084 
Q 2853 3084 3261 2657 
Q 3669 2231 3669 1497 
Q 3669 778 3244 343 
Q 2819 -91 2113 -91 
Q 1303 -91 875 529 
Q 447 1150 447 2328 
Q 447 3434 972 4092 
Q 1497 4750 2381 4750 
Q 2619 4750 2861 4703 
Q 3103 4656 3366 4563 
z
" transform="scale(0.015625)"/>
       </defs>
       <use xlink:href="#DejaVuSans-36"/>
      </g>
     </g>
    </g>
    <g id="xtick_7">
     <g id="line2d_18">
      <path d="M 611.083636 624.78 
L 611.083636 84.24 
" clip-path="url(#p0e1e297c2c)" style="fill: none; stroke: #b0b0b0; stroke-width: 0.8; stroke-linecap: square"/>
     </g>
     <g id="line2d_19">
      <g>
       <use xlink:href="#mafd4c42f87" x="611.083636" y="624.78" style="stroke: #000000; stroke-width: 0.8"/>
      </g>
     </g>
     <g id="text_7">
      <!-- 7 -->
      <g transform="translate(607.902386 639.378438) scale(0.1 -0.1)">
       <defs>
        <path id="DejaVuSans-37" d="M 525 4666 
L 3525 4666 
L 3525 4397 
L 1831 0 
L 1172 0 
L 2766 4134 
L 525 4134 
L 525 4666 
z
" transform="scale(0.015625)"/>
       </defs>
       <use xlink:href="#DejaVuSans-37"/>
      </g>
     </g>
    </g>
    <g id="xtick_8">
     <g id="line2d_20">
      <path d="M 676.014545 624.78 
L 676.014545 84.24 
" clip-path="url(#p0e1e297c2c)" style="fill: none; stroke: #b0b0b0; stroke-width: 0.8; stroke-linecap: square"/>
     </g>
     <g id="line2d_21">
      <g>
       <use xlink:href="#mafd4c42f87" x="676.014545" y="624.78" style="stroke: #000000; stroke-width: 0.8"/>
      </g>
     </g>
     <g id="text_8">
      <!-- 8 -->
      <g transform="translate(672.833295 639.378438) scale(0.1 -0.1)">
       <defs>
        <path id="DejaVuSans-38" d="M 2034 2216 
Q 1584 2216 1326 1975 
Q 1069 1734 1069 1313 
Q 1069 891 1326 650 
Q 1584 409 2034 409 
Q 2484 409 2743 651 
Q 3003 894 3003 1313 
Q 3003 1734 2745 1975 
Q 2488 2216 2034 2216 
z
M 1403 2484 
Q 997 2584 770 2862 
Q 544 3141 544 3541 
Q 544 4100 942 4425 
Q 1341 4750 2034 4750 
Q 2731 4750 3128 4425 
Q 3525 4100 3525 3541 
Q 3525 3141 3298 2862 
Q 3072 2584 2669 2484 
Q 3125 2378 3379 2068 
Q 3634 1759 3634 1313 
Q 3634 634 3220 271 
Q 2806 -91 2034 -91 
Q 1263 -91 848 271 
Q 434 634 434 1313 
Q 434 1759 690 2068 
Q 947 2378 1403 2484 
z
M 1172 3481 
Q 1172 3119 1398 2916 
Q 1625 2713 2034 2713 
Q 2441 2713 2670 2916 
Q 2900 3119 2900 3481 
Q 2900 3844 2670 4047 
Q 2441 4250 2034 4250 
Q 1625 4250 1398 4047 
Q 1172 3844 1172 3481 
z
" transform="scale(0.015625)"/>
       </defs>
       <use xlink:href="#DejaVuSans-38"/>
      </g>
     </g>
    </g>
    <g id="xtick_9">
     <g id="line2d_22">
      <path d="M 740.945455 624.78 
L 740.945455 84.24 
" clip-path="url(#p0e1e297c2c)" style="fill: none; stroke: #b0b0b0; stroke-width: 0.8; stroke-linecap: square"/>
     </g>
     <g id="line2d_23">
      <g>
       <use xlink:href="#mafd4c42f87" x="740.945455" y="624.78" style="stroke: #000000; stroke-width: 0.8"/>
      </g>
     </g>
     <g id="text_9">
      <!-- 9 -->
      <g transform="translate(737.764205 639.378438) scale(0.1 -0.1)">
       <defs>
        <path id="DejaVuSans-39" d="M 703 97 
L 703 672 
Q 941 559 1184 500 
Q 1428 441 1663 441 
Q 2288 441 2617 861 
Q 2947 1281 2994 2138 
Q 2813 1869 2534 1725 
Q 2256 1581 1919 1581 
Q 1219 1581 811 2004 
Q 403 2428 403 3163 
Q 403 3881 828 4315 
Q 1253 4750 1959 4750 
Q 2769 4750 3195 4129 
Q 3622 3509 3622 2328 
Q 3622 1225 3098 567 
Q 2575 -91 1691 -91 
Q 1453 -91 1209 -44 
Q 966 3 703 97 
z
M 1959 2075 
Q 2384 2075 2632 2365 
Q 2881 2656 2881 3163 
Q 2881 3666 2632 3958 
Q 2384 4250 1959 4250 
Q 1534 4250 1286 3958 
Q 1038 3666 1038 3163 
Q 1038 2656 1286 2365 
Q 1534 2075 1959 2075 
z
" transform="scale(0.015625)"/>
       </defs>
       <use xlink:href="#DejaVuSans-39"/>
      </g>
     </g>
    </g>
    <g id="xtick_10">
     <g id="line2d_24">
      <path d="M 805.876364 624.78 
L 805.876364 84.24 
" clip-path="url(#p0e1e297c2c)" style="fill: none; stroke: #b0b0b0; stroke-width: 0.8; stroke-linecap: square"/>
     </g>
     <g id="line2d_25">
      <g>
       <use xlink:href="#mafd4c42f87" x="805.876364" y="624.78" style="stroke: #000000; stroke-width: 0.8"/>
      </g>
     </g>
     <g id="text_10">
      <!-- 10 -->
      <g transform="translate(799.513864 639.378438) scale(0.1 -0.1)">
       <defs>
        <path id="DejaVuSans-30" d="M 2034 4250 
Q 1547 4250 1301 3770 
Q 1056 3291 1056 2328 
Q 1056 1369 1301 889 
Q 1547 409 2034 409 
Q 2525 409 2770 889 
Q 3016 1369 3016 2328 
Q 3016 3291 2770 3770 
Q 2525 4250 2034 4250 
z
M 2034 4750 
Q 2819 4750 3233 4129 
Q 3647 3509 3647 2328 
Q 3647 1150 3233 529 
Q 2819 -91 2034 -91 
Q 1250 -91 836 529 
Q 422 1150 422 2328 
Q 422 3509 836 4129 
Q 1250 4750 2034 4750 
z
" transform="scale(0.015625)"/>
       </defs>
       <use xlink:href="#DejaVuSans-31"/>
       <use xlink:href="#DejaVuSans-30" x="63.623047"/>
      </g>
     </g>
    </g>
    <g id="xtick_11">
     <g id="line2d_26">
      <path d="M 870.807273 624.78 
L 870.807273 84.24 
" clip-path="url(#p0e1e297c2c)" style="fill: none; stroke: #b0b0b0; stroke-width: 0.8; stroke-linecap: square"/>
     </g>
     <g id="line2d_27">
      <g>
       <use xlink:href="#mafd4c42f87" x="870.807273" y="624.78" style="stroke: #000000; stroke-width: 0.8"/>
      </g>
     </g>
     <g id="text_11">
      <!-- 11 -->
      <g transform="translate(864.444773 639.378438) scale(0.1 -0.1)">
       <use xlink:href="#DejaVuSans-31"/>
       <use xlink:href="#DejaVuSans-31" x="63.623047"/>
      </g>
     </g>
    </g>
    <g id="xtick_12">
     <g id="line2d_28">
      <path d="M 935.738182 624.78 
L 935.738182 84.24 
" clip-path="url(#p0e1e297c2c)" style="fill: none; stroke: #b0b0b0; stroke-width: 0.8; stroke-linecap: square"/>
     </g>
     <g id="line2d_29">
      <g>
       <use xlink:href="#mafd4c42f87" x="935.738182" y="624.78" style="stroke: #000000; stroke-width: 0.8"/>
      </g>
     </g>
     <g id="text_12">
      <!-- 12 -->
      <g transform="translate(929.375682 639.378438) scale(0.1 -0.1)">
       <use xlink:href="#DejaVuSans-31"/>
       <use xlink:href="#DejaVuSans-32" x="63.623047"/>
      </g>
     </g>
    </g>
    <g id="xtick_13">
     <g id="line2d_30">
      <path d="M 1000.669091 624.78 
L 1000.669091 84.24 
" clip-path="url(#p0e1e297c2c)" style="fill: none; stroke: #b0b0b0; stroke-width: 0.8; stroke-linecap: square"/>
     </g>
     <g id="line2d_31">
      <g>
       <use xlink:href="#mafd4c42f87" x="1000.669091" y="624.78" style="stroke: #000000; stroke-width: 0.8"/>
      </g>
     </g>
     <g id="text_13">
      <!-- 13 -->
      <g transform="translate(994.306591 639.378438) scale(0.1 -0.1)">
       <use xlink:href="#DejaVuSans-31"/>
       <use xlink:href="#DejaVuSans-33" x="63.623047"/>
      </g>
     </g>
    </g>
    <g id="xtick_14">
     <g id="line2d_32">
      <path d="M 1065.6 624.78 
L 1065.6 84.24 
" clip-path="url(#p0e1e297c2c)" style="fill: none; stroke: #b0b0b0; stroke-width: 0.8; stroke-linecap: square"/>
     </g>
     <g id="line2d_33">
      <g>
       <use xlink:href="#mafd4c42f87" x="1065.6" y="624.78" style="stroke: #000000; stroke-width: 0.8"/>
      </g>
     </g>
     <g id="text_14">
      <!-- 14 -->
      <g transform="translate(1059.2375 639.378438) scale(0.1 -0.1)">
       <use xlink:href="#DejaVuSans-31"/>
       <use xlink:href="#DejaVuSans-34" x="63.623047"/>
      </g>
     </g>
    </g>
    <g id="xtick_15">
     <g id="line2d_34">
      <path d="M 1130.530909 624.78 
L 1130.530909 84.24 
" clip-path="url(#p0e1e297c2c)" style="fill: none; stroke: #b0b0b0; stroke-width: 0.8; stroke-linecap: square"/>
     </g>
     <g id="line2d_35">
      <g>
       <use xlink:href="#mafd4c42f87" x="1130.530909" y="624.78" style="stroke: #000000; stroke-width: 0.8"/>
      </g>
     </g>
     <g id="text_15">
      <!-- 15 -->
      <g transform="translate(1124.168409 639.378438) scale(0.1 -0.1)">
       <use xlink:href="#DejaVuSans-31"/>
       <use xlink:href="#DejaVuSans-35" x="63.623047"/>
      </g>
     </g>
    </g>
    <g id="xtick_16">
     <g id="line2d_36">
      <path d="M 1195.461818 624.78 
L 1195.461818 84.24 
" clip-path="url(#p0e1e297c2c)" style="fill: none; stroke: #b0b0b0; stroke-width: 0.8; stroke-linecap: square"/>
     </g>
     <g id="line2d_37">
      <g>
       <use xlink:href="#mafd4c42f87" x="1195.461818" y="624.78" style="stroke: #000000; stroke-width: 0.8"/>
      </g>
     </g>
     <g id="text_16">
      <!-- 16 -->
      <g transform="translate(1189.099318 639.378438) scale(0.1 -0.1)">
       <use xlink:href="#DejaVuSans-31"/>
       <use xlink:href="#DejaVuSans-36" x="63.623047"/>
      </g>
     </g>
    </g>
    <g id="text_17">
     <!-- Threads -->
     <g transform="translate(688.394844 653.056563) scale(0.1 -0.1)">
      <defs>
       <path id="DejaVuSans-54" d="M -19 4666 
L 3928 4666 
L 3928 4134 
L 2272 4134 
L 2272 0 
L 1638 0 
L 1638 4134 
L -19 4134 
L -19 4666 
z
" transform="scale(0.015625)"/>
       <path id="DejaVuSans-68" d="M 3513 2113 
L 3513 0 
L 2938 0 
L 2938 2094 
Q 2938 2591 2744 2837 
Q 2550 3084 2163 3084 
Q 1697 3084 1428 2787 
Q 1159 2491 1159 1978 
L 1159 0 
L 581 0 
L 581 4863 
L 1159 4863 
L 1159 2956 
Q 1366 3272 1645 3428 
Q 1925 3584 2291 3584 
Q 2894 3584 3203 3211 
Q 3513 2838 3513 2113 
z
" transform="scale(0.015625)"/>
       <path id="DejaVuSans-72" d="M 2631 2963 
Q 2534 3019 2420 3045 
Q 2306 3072 2169 3072 
Q 1681 3072 1420 2755 
Q 1159 2438 1159 1844 
L 1159 0 
L 581 0 
L 581 3500 
L 1159 3500 
L 1159 2956 
Q 1341 3275 1631 3429 
Q 1922 3584 2338 3584 
Q 2397 3584 2469 3576 
Q 2541 3569 2628 3553 
L 2631 2963 
z
" transform="scale(0.015625)"/>
       <path id="DejaVuSans-65" d="M 3597 1894 
L 3597 1613 
L 953 1613 
Q 991 1019 1311 708 
Q 1631 397 2203 397 
Q 2534 397 2845 478 
Q 3156 559 3463 722 
L 3463 178 
Q 3153 47 2828 -22 
Q 2503 -91 2169 -91 
Q 1331 -91 842 396 
Q 353 884 353 1716 
Q 353 2575 817 3079 
Q 1281 3584 2069 3584 
Q 2775 3584 3186 3129 
Q 3597 2675 3597 1894 
z
M 3022 2063 
Q 3016 2534 2758 2815 
Q 2500 3097 2075 3097 
Q 1594 3097 1305 2825 
Q 1016 2553 972 2059 
L 3022 2063 
z
" transform="scale(0.015625)"/>
       <path id="DejaVuSans-61" d="M 2194 1759 
Q 1497 1759 1228 1600 
Q 959 1441 959 1056 
Q 959 750 1161 570 
Q 1363 391 1709 391 
Q 2188 391 2477 730 
Q 2766 1069 2766 1631 
L 2766 1759 
L 2194 1759 
z
M 3341 1997 
L 3341 0 
L 2766 0 
L 2766 531 
Q 2569 213 2275 61 
Q 1981 -91 1556 -91 
Q 1019 -91 701 211 
Q 384 513 384 1019 
Q 384 1609 779 1909 
Q 1175 2209 1959 2209 
L 2766 2209 
L 2766 2266 
Q 2766 2663 2505 2880 
Q 2244 3097 1772 3097 
Q 1472 3097 1187 3025 
Q 903 2953 641 2809 
L 641 3341 
Q 956 3463 1253 3523 
Q 1550 3584 1831 3584 
Q 2591 3584 2966 3190 
Q 3341 2797 3341 1997 
z
" transform="scale(0.015625)"/>
       <path id="DejaVuSans-64" d="M 2906 2969 
L 2906 4863 
L 3481 4863 
L 3481 0 
L 2906 0 
L 2906 525 
Q 2725 213 2448 61 
Q 2172 -91 1784 -91 
Q 1150 -91 751 415 
Q 353 922 353 1747 
Q 353 2572 751 3078 
Q 1150 3584 1784 3584 
Q 2172 3584 2448 3432 
Q 2725 3281 2906 2969 
z
M 947 1747 
Q 947 1113 1208 752 
Q 1469 391 1925 391 
Q 2381 391 2643 752 
Q 2906 1113 2906 1747 
Q 2906 2381 2643 2742 
Q 2381 3103 1925 3103 
Q 1469 3103 1208 2742 
Q 947 2381 947 1747 
z
" transform="scale(0.015625)"/>
       <path id="DejaVuSans-73" d="M 2834 3397 
L 2834 2853 
Q 2591 2978 2328 3040 
Q 2066 3103 1784 3103 
Q 1356 3103 1142 2972 
Q 928 2841 928 2578 
Q 928 2378 1081 2264 
Q 1234 2150 1697 2047 
L 1894 2003 
Q 2506 1872 2764 1633 
Q 3022 1394 3022 966 
Q 3022 478 2636 193 
Q 2250 -91 1575 -91 
Q 1294 -91 989 -36 
Q 684 19 347 128 
L 347 722 
Q 666 556 975 473 
Q 1284 391 1588 391 
Q 1994 391 2212 530 
Q 2431 669 2431 922 
Q 2431 1156 2273 1281 
Q 2116 1406 1581 1522 
L 1381 1569 
Q 847 1681 609 1914 
Q 372 2147 372 2553 
Q 372 3047 722 3315 
Q 1072 3584 1716 3584 
Q 2034 3584 2315 3537 
Q 2597 3491 2834 3397 
z
" transform="scale(0.015625)"/>
      </defs>
      <use xlink:href="#DejaVuSans-54"/>
      <use xlink:href="#DejaVuSans-68" x="61.083984"/>
      <use xlink:href="#DejaVuSans-72" x="124.462891"/>
      <use xlink:href="#DejaVuSans-65" x="163.326172"/>
      <use xlink:href="#DejaVuSans-61" x="224.849609"/>
      <use xlink:href="#DejaVuSans-64" x="286.128906"/>
      <use xlink:href="#DejaVuSans-73" x="349.605469"/>
     </g>
    </g>
   </g>
   <g id="matplotlib.axis_2">
    <g id="ytick_1">
     <g id="line2d_38">
      <path d="M 172.8 542.561376 
L 1244.16 542.561376 
" clip-path="url(#p0e1e297c2c)" style="fill: none; stroke: #b0b0b0; stroke-width: 0.8; stroke-linecap: square"/>
     </g>
     <g id="line2d_39">
      <defs>
       <path id="m897d7e7429" d="M 0 0 
L -3.5 0 
" style="stroke: #000000; stroke-width: 0.8"/>
      </defs>
      <g>
       <use xlink:href="#m897d7e7429" x="172.8" y="542.561376" style="stroke: #000000; stroke-width: 0.8"/>
      </g>
     </g>
     <g id="text_18">
      <!-- 0.52 -->
      <g transform="translate(143.534375 546.360594) scale(0.1 -0.1)">
       <defs>
        <path id="DejaVuSans-2e" d="M 684 794 
L 1344 794 
L 1344 0 
L 684 0 
L 684 794 
z
" transform="scale(0.015625)"/>
       </defs>
       <use xlink:href="#DejaVuSans-30"/>
       <use xlink:href="#DejaVuSans-2e" x="63.623047"/>
       <use xlink:href="#DejaVuSans-35" x="95.410156"/>
       <use xlink:href="#DejaVuSans-32" x="159.033203"/>
      </g>
     </g>
    </g>
    <g id="ytick_2">
     <g id="line2d_40">
      <path d="M 172.8 427.745206 
L 1244.16 427.745206 
" clip-path="url(#p0e1e297c2c)" style="fill: none; stroke: #b0b0b0; stroke-width: 0.8; stroke-linecap: square"/>
     </g>
     <g id="line2d_41">
      <g>
       <use xlink:href="#m897d7e7429" x="172.8" y="427.745206" style="stroke: #000000; stroke-width: 0.8"/>
      </g>
     </g>
     <g id="text_19">
      <!-- 0.54 -->
      <g transform="translate(143.534375 431.544425) scale(0.1 -0.1)">
       <use xlink:href="#DejaVuSans-30"/>
       <use xlink:href="#DejaVuSans-2e" x="63.623047"/>
       <use xlink:href="#DejaVuSans-35" x="95.410156"/>
       <use xlink:href="#DejaVuSans-34" x="159.033203"/>
      </g>
     </g>
    </g>
    <g id="ytick_3">
     <g id="line2d_42">
      <path d="M 172.8 312.929037 
L 1244.16 312.929037 
" clip-path="url(#p0e1e297c2c)" style="fill: none; stroke: #b0b0b0; stroke-width: 0.8; stroke-linecap: square"/>
     </g>
     <g id="line2d_43">
      <g>
       <use xlink:href="#m897d7e7429" x="172.8" y="312.929037" style="stroke: #000000; stroke-width: 0.8"/>
      </g>
     </g>
     <g id="text_20">
      <!-- 0.56 -->
      <g transform="translate(143.534375 316.728256) scale(0.1 -0.1)">
       <use xlink:href="#DejaVuSans-30"/>
       <use xlink:href="#DejaVuSans-2e" x="63.623047"/>
       <use xlink:href="#DejaVuSans-35" x="95.410156"/>
       <use xlink:href="#DejaVuSans-36" x="159.033203"/>
      </g>
     </g>
    </g>
    <g id="ytick_4">
     <g id="line2d_44">
      <path d="M 172.8 198.112868 
L 1244.16 198.112868 
" clip-path="url(#p0e1e297c2c)" style="fill: none; stroke: #b0b0b0; stroke-width: 0.8; stroke-linecap: square"/>
     </g>
     <g id="line2d_45">
      <g>
       <use xlink:href="#m897d7e7429" x="172.8" y="198.112868" style="stroke: #000000; stroke-width: 0.8"/>
      </g>
     </g>
     <g id="text_21">
      <!-- 0.58 -->
      <g transform="translate(143.534375 201.912087) scale(0.1 -0.1)">
       <use xlink:href="#DejaVuSans-30"/>
       <use xlink:href="#DejaVuSans-2e" x="63.623047"/>
       <use xlink:href="#DejaVuSans-35" x="95.410156"/>
       <use xlink:href="#DejaVuSans-38" x="159.033203"/>
      </g>
     </g>
    </g>
    <g id="text_22">
     <!-- Time (s) -->
     <g transform="translate(137.454687 374.838906) rotate(-90) scale(0.1 -0.1)">
      <defs>
       <path id="DejaVuSans-69" d="M 603 3500 
L 1178 3500 
L 1178 0 
L 603 0 
L 603 3500 
z
M 603 4863 
L 1178 4863 
L 1178 4134 
L 603 4134 
L 603 4863 
z
" transform="scale(0.015625)"/>
       <path id="DejaVuSans-6d" d="M 3328 2828 
Q 3544 3216 3844 3400 
Q 4144 3584 4550 3584 
Q 5097 3584 5394 3201 
Q 5691 2819 5691 2113 
L 5691 0 
L 5113 0 
L 5113 2094 
Q 5113 2597 4934 2840 
Q 4756 3084 4391 3084 
Q 3944 3084 3684 2787 
Q 3425 2491 3425 1978 
L 3425 0 
L 2847 0 
L 2847 2094 
Q 2847 2600 2669 2842 
Q 2491 3084 2119 3084 
Q 1678 3084 1418 2786 
Q 1159 2488 1159 1978 
L 1159 0 
L 581 0 
L 581 3500 
L 1159 3500 
L 1159 2956 
Q 1356 3278 1631 3431 
Q 1906 3584 2284 3584 
Q 2666 3584 2933 3390 
Q 3200 3197 3328 2828 
z
" transform="scale(0.015625)"/>
       <path id="DejaVuSans-20" transform="scale(0.015625)"/>
       <path id="DejaVuSans-28" d="M 1984 4856 
Q 1566 4138 1362 3434 
Q 1159 2731 1159 2009 
Q 1159 1288 1364 580 
Q 1569 -128 1984 -844 
L 1484 -844 
Q 1016 -109 783 600 
Q 550 1309 550 2009 
Q 550 2706 781 3412 
Q 1013 4119 1484 4856 
L 1984 4856 
z
" transform="scale(0.015625)"/>
       <path id="DejaVuSans-29" d="M 513 4856 
L 1013 4856 
Q 1481 4119 1714 3412 
Q 1947 2706 1947 2009 
Q 1947 1309 1714 600 
Q 1481 -109 1013 -844 
L 513 -844 
Q 928 -128 1133 580 
Q 1338 1288 1338 2009 
Q 1338 2731 1133 3434 
Q 928 4138 513 4856 
z
" transform="scale(0.015625)"/>
      </defs>
      <use xlink:href="#DejaVuSans-54"/>
      <use xlink:href="#DejaVuSans-69" x="57.958984"/>
      <use xlink:href="#DejaVuSans-6d" x="85.742188"/>
      <use xlink:href="#DejaVuSans-65" x="183.154297"/>
      <use xlink:href="#DejaVuSans-20" x="244.677734"/>
      <use xlink:href="#DejaVuSans-28" x="276.464844"/>
      <use xlink:href="#DejaVuSans-73" x="315.478516"/>
      <use xlink:href="#DejaVuSans-29" x="367.578125"/>
     </g>
    </g>
   </g>
   <g id="PathCollection_1">
    <defs>
     <path id="mc4c655ac27" d="M 0 1.118034 
C 0.296506 1.118034 0.580908 1.000231 0.790569 0.790569 
C 1.000231 0.580908 1.118034 0.296506 1.118034 0 
C 1.118034 -0.296506 1.000231 -0.580908 0.790569 -0.790569 
C 0.580908 -1.000231 0.296506 -1.118034 0 -1.118034 
C -0.296506 -1.118034 -0.580908 -1.000231 -0.790569 -0.790569 
C -1.000231 -0.580908 -1.118034 -0.296506 -1.118034 0 
C -1.118034 0.296506 -1.000231 0.580908 -0.790569 0.790569 
C -0.580908 1.000231 -0.296506 1.118034 0 1.118034 
z
" style="stroke: #1f77b4"/>
    </defs>
    <g clip-path="url(#p0e1e297c2c)">
     <use xlink:href="#mc4c655ac27" x="221.498182" y="157.770485" style="fill: #1f77b4; stroke: #1f77b4"/>
     <use xlink:href="#mc4c655ac27" x="286.429091" y="131.039559" style="fill: #1f77b4; stroke: #1f77b4"/>
     <use xlink:href="#mc4c655ac27" x="351.36" y="124.44911" style="fill: #1f77b4; stroke: #1f77b4"/>
     <use xlink:href="#mc4c655ac27" x="416.290909" y="447.54181" style="fill: #1f77b4; stroke: #1f77b4"/>
     <use xlink:href="#mc4c655ac27" x="481.221818" y="424.572262" style="fill: #1f77b4; stroke: #1f77b4"/>
     <use xlink:href="#mc4c655ac27" x="546.152727" y="451.68897" style="fill: #1f77b4; stroke: #1f77b4"/>
     <use xlink:href="#mc4c655ac27" x="611.083636" y="299.441008" style="fill: #1f77b4; stroke: #1f77b4"/>
     <use xlink:href="#mc4c655ac27" x="676.014545" y="446.526261" style="fill: #1f77b4; stroke: #1f77b4"/>
     <use xlink:href="#mc4c655ac27" x="740.945455" y="443.922231" style="fill: #1f77b4; stroke: #1f77b4"/>
     <use xlink:href="#mc4c655ac27" x="805.876364" y="232.717313" style="fill: #1f77b4; stroke: #1f77b4"/>
     <use xlink:href="#mc4c655ac27" x="870.807273" y="298.572998" style="fill: #1f77b4; stroke: #1f77b4"/>
     <use xlink:href="#mc4c655ac27" x="935.738182" y="108.81" style="fill: #1f77b4; stroke: #1f77b4"/>
     <use xlink:href="#mc4c655ac27" x="1000.669091" y="418.749934" style="fill: #1f77b4; stroke: #1f77b4"/>
     <use xlink:href="#mc4c655ac27" x="1065.6" y="550.580137" style="fill: #1f77b4; stroke: #1f77b4"/>
     <use xlink:href="#mc4c655ac27" x="1130.530909" y="485.932319" style="fill: #1f77b4; stroke: #1f77b4"/>
     <use xlink:href="#mc4c655ac27" x="1195.461818" y="438.913949" style="fill: #1f77b4; stroke: #1f77b4"/>
    </g>
   </g>
   <g id="PathCollection_2">
    <defs>
     <path id="m582a800dc9" d="M 0 1.118034 
C 0.296506 1.118034 0.580908 1.000231 0.790569 0.790569 
C 1.000231 0.580908 1.118034 0.296506 1.118034 0 
C 1.118034 -0.296506 1.000231 -0.580908 0.790569 -0.790569 
C 0.580908 -1.000231 0.296506 -1.118034 0 -1.118034 
C -0.296506 -1.118034 -0.580908 -1.000231 -0.790569 -0.790569 
C -1.000231 -0.580908 -1.118034 -0.296506 -1.118034 0 
C -1.118034 0.296506 -1.000231 0.580908 -0.790569 0.790569 
C -0.580908 1.000231 -0.296506 1.118034 0 1.118034 
z
" style="stroke: #ff7f0e"/>
    </defs>
    <g clip-path="url(#p0e1e297c2c)">
     <use xlink:href="#m582a800dc9" x="221.498182" y="587.916059" style="fill: #ff7f0e; stroke: #ff7f0e"/>
     <use xlink:href="#m582a800dc9" x="286.429091" y="446.048052" style="fill: #ff7f0e; stroke: #ff7f0e"/>
     <use xlink:href="#m582a800dc9" x="351.36" y="499.54435" style="fill: #ff7f0e; stroke: #ff7f0e"/>
     <use xlink:href="#m582a800dc9" x="416.290909" y="557.301475" style="fill: #ff7f0e; stroke: #ff7f0e"/>
     <use xlink:href="#m582a800dc9" x="481.221818" y="600.21" style="fill: #ff7f0e; stroke: #ff7f0e"/>
     <use xlink:href="#m582a800dc9" x="546.152727" y="530.506826" style="fill: #ff7f0e; stroke: #ff7f0e"/>
     <use xlink:href="#m582a800dc9" x="611.083636" y="406.060451" style="fill: #ff7f0e; stroke: #ff7f0e"/>
     <use xlink:href="#m582a800dc9" x="676.014545" y="453.924441" style="fill: #ff7f0e; stroke: #ff7f0e"/>
     <use xlink:href="#m582a800dc9" x="740.945455" y="534.625856" style="fill: #ff7f0e; stroke: #ff7f0e"/>
     <use xlink:href="#m582a800dc9" x="805.876364" y="459.377061" style="fill: #ff7f0e; stroke: #ff7f0e"/>
     <use xlink:href="#m582a800dc9" x="870.807273" y="362.382084" style="fill: #ff7f0e; stroke: #ff7f0e"/>
     <use xlink:href="#m582a800dc9" x="935.738182" y="540.587112" style="fill: #ff7f0e; stroke: #ff7f0e"/>
     <use xlink:href="#m582a800dc9" x="1000.669091" y="397.167364" style="fill: #ff7f0e; stroke: #ff7f0e"/>
     <use xlink:href="#m582a800dc9" x="1065.6" y="535.080528" style="fill: #ff7f0e; stroke: #ff7f0e"/>
     <use xlink:href="#m582a800dc9" x="1130.530909" y="467.630047" style="fill: #ff7f0e; stroke: #ff7f0e"/>
     <use xlink:href="#m582a800dc9" x="1195.461818" y="477.360144" style="fill: #ff7f0e; stroke: #ff7f0e"/>
    </g>
   </g>
   <g id="PathCollection_3">
    <defs>
     <path id="me37f7163d7" d="M 0 1.118034 
C 0.296506 1.118034 0.580908 1.000231 0.790569 0.790569 
C 1.000231 0.580908 1.118034 0.296506 1.118034 0 
C 1.118034 -0.296506 1.000231 -0.580908 0.790569 -0.790569 
C 0.580908 -1.000231 0.296506 -1.118034 0 -1.118034 
C -0.296506 -1.118034 -0.580908 -1.000231 -0.790569 -0.790569 
C -1.000231 -0.580908 -1.118034 -0.296506 -1.118034 0 
C -1.118034 0.296506 -1.000231 0.580908 -0.790569 0.790569 
C -0.580908 1.000231 -0.296506 1.118034 0 1.118034 
z
" style="stroke: #2ca02c"/>
    </defs>
    <g clip-path="url(#p0e1e297c2c)">
     <use xlink:href="#me37f7163d7" x="221.498182" y="560.782702" style="fill: #2ca02c; stroke: #2ca02c"/>
     <use xlink:href="#me37f7163d7" x="286.429091" y="587.739816" style="fill: #2ca02c; stroke: #2ca02c"/>
     <use xlink:href="#me37f7163d7" x="351.36" y="541.447085" style="fill: #2ca02c; stroke: #2ca02c"/>
     <use xlink:href="#me37f7163d7" x="416.290909" y="478.135727" style="fill: #2ca02c; stroke: #2ca02c"/>
     <use xlink:href="#me37f7163d7" x="481.221818" y="482.51539" style="fill: #2ca02c; stroke: #2ca02c"/>
     <use xlink:href="#me37f7163d7" x="546.152727" y="355.665912" style="fill: #2ca02c; stroke: #2ca02c"/>
     <use xlink:href="#me37f7163d7" x="611.083636" y="559.897469" style="fill: #2ca02c; stroke: #2ca02c"/>
     <use xlink:href="#me37f7163d7" x="676.014545" y="475.554659" style="fill: #2ca02c; stroke: #2ca02c"/>
     <use xlink:href="#me37f7163d7" x="740.945455" y="293.626717" style="fill: #2ca02c; stroke: #2ca02c"/>
     <use xlink:href="#me37f7163d7" x="805.876364" y="391.946673" style="fill: #2ca02c; stroke: #2ca02c"/>
     <use xlink:href="#me37f7163d7" x="870.807273" y="413.666448" style="fill: #2ca02c; stroke: #2ca02c"/>
     <use xlink:href="#me37f7163d7" x="935.738182" y="515.078403" style="fill: #2ca02c; stroke: #2ca02c"/>
     <use xlink:href="#me37f7163d7" x="1000.669091" y="328.563555" style="fill: #2ca02c; stroke: #2ca02c"/>
     <use xlink:href="#me37f7163d7" x="1065.6" y="399.267352" style="fill: #2ca02c; stroke: #2ca02c"/>
     <use xlink:href="#me37f7163d7" x="1130.530909" y="316.097389" style="fill: #2ca02c; stroke: #2ca02c"/>
     <use xlink:href="#me37f7163d7" x="1195.461818" y="431.938867" style="fill: #2ca02c; stroke: #2ca02c"/>
    </g>
   </g>
   <g id="PathCollection_4">
    <defs>
     <path id="m826824ee2b" d="M 0 1.118034 
C 0.296506 1.118034 0.580908 1.000231 0.790569 0.790569 
C 1.000231 0.580908 1.118034 0.296506 1.118034 0 
C 1.118034 -0.296506 1.000231 -0.580908 0.790569 -0.790569 
C 0.580908 -1.000231 0.296506 -1.118034 0 -1.118034 
C -0.296506 -1.118034 -0.580908 -1.000231 -0.790569 -0.790569 
C -1.000231 -0.580908 -1.118034 -0.296506 -1.118034 0 
C -1.118034 0.296506 -1.000231 0.580908 -0.790569 0.790569 
C -0.580908 1.000231 -0.296506 1.118034 0 1.118034 
z
" style="stroke: #d62728"/>
    </defs>
    <g clip-path="url(#p0e1e297c2c)">
     <use xlink:href="#m826824ee2b" x="221.498182" y="385.476782" style="fill: #d62728; stroke: #d62728"/>
     <use xlink:href="#m826824ee2b" x="286.429091" y="325.241349" style="fill: #d62728; stroke: #d62728"/>
     <use xlink:href="#m826824ee2b" x="351.36" y="229.833131" style="fill: #d62728; stroke: #d62728"/>
     <use xlink:href="#m826824ee2b" x="416.290909" y="254.798185" style="fill: #d62728; stroke: #d62728"/>
     <use xlink:href="#m826824ee2b" x="481.221818" y="472.889202" style="fill: #d62728; stroke: #d62728"/>
     <use xlink:href="#m826824ee2b" x="546.152727" y="389.800185" style="fill: #d62728; stroke: #d62728"/>
     <use xlink:href="#m826824ee2b" x="611.083636" y="349.357911" style="fill: #d62728; stroke: #d62728"/>
     <use xlink:href="#m826824ee2b" x="676.014545" y="563.18236" style="fill: #d62728; stroke: #d62728"/>
     <use xlink:href="#m826824ee2b" x="740.945455" y="467.604788" style="fill: #d62728; stroke: #d62728"/>
     <use xlink:href="#m826824ee2b" x="805.876364" y="262.920281" style="fill: #d62728; stroke: #d62728"/>
     <use xlink:href="#m826824ee2b" x="870.807273" y="409.919996" style="fill: #d62728; stroke: #d62728"/>
     <use xlink:href="#m826824ee2b" x="935.738182" y="427.405351" style="fill: #d62728; stroke: #d62728"/>
     <use xlink:href="#m826824ee2b" x="1000.669091" y="404.514451" style="fill: #d62728; stroke: #d62728"/>
     <use xlink:href="#m826824ee2b" x="1065.6" y="462.924307" style="fill: #d62728; stroke: #d62728"/>
     <use xlink:href="#m826824ee2b" x="1130.530909" y="419.9423" style="fill: #d62728; stroke: #d62728"/>
     <use xlink:href="#m826824ee2b" x="1195.461818" y="181.651674" style="fill: #d62728; stroke: #d62728"/>
    </g>
   </g>
   <g id="PathCollection_5">
    <defs>
     <path id="m2e5aa4be6d" d="M 0 1.118034 
C 0.296506 1.118034 0.580908 1.000231 0.790569 0.790569 
C 1.000231 0.580908 1.118034 0.296506 1.118034 0 
C 1.118034 -0.296506 1.000231 -0.580908 0.790569 -0.790569 
C 0.580908 -1.000231 0.296506 -1.118034 0 -1.118034 
C -0.296506 -1.118034 -0.580908 -1.000231 -0.790569 -0.790569 
C -1.000231 -0.580908 -1.118034 -0.296506 -1.118034 0 
C -1.118034 0.296506 -1.000231 0.580908 -0.790569 0.790569 
C -0.580908 1.000231 -0.296506 1.118034 0 1.118034 
z
" style="stroke: #9467bd"/>
    </defs>
    <g clip-path="url(#p0e1e297c2c)">
     <use xlink:href="#m2e5aa4be6d" x="221.498182" y="307.858755" style="fill: #9467bd; stroke: #9467bd"/>
     <use xlink:href="#m2e5aa4be6d" x="286.429091" y="447.308159" style="fill: #9467bd; stroke: #9467bd"/>
     <use xlink:href="#m2e5aa4be6d" x="351.36" y="461.330658" style="fill: #9467bd; stroke: #9467bd"/>
     <use xlink:href="#m2e5aa4be6d" x="416.290909" y="284.839836" style="fill: #9467bd; stroke: #9467bd"/>
     <use xlink:href="#m2e5aa4be6d" x="481.221818" y="366.940286" style="fill: #9467bd; stroke: #9467bd"/>
     <use xlink:href="#m2e5aa4be6d" x="546.152727" y="361.123124" style="fill: #9467bd; stroke: #9467bd"/>
     <use xlink:href="#m2e5aa4be6d" x="611.083636" y="334.12238" style="fill: #9467bd; stroke: #9467bd"/>
     <use xlink:href="#m2e5aa4be6d" x="676.014545" y="425.693441" style="fill: #9467bd; stroke: #9467bd"/>
     <use xlink:href="#m2e5aa4be6d" x="740.945455" y="405.364665" style="fill: #9467bd; stroke: #9467bd"/>
     <use xlink:href="#m2e5aa4be6d" x="805.876364" y="457.331037" style="fill: #9467bd; stroke: #9467bd"/>
     <use xlink:href="#m2e5aa4be6d" x="870.807273" y="405.838281" style="fill: #9467bd; stroke: #9467bd"/>
     <use xlink:href="#m2e5aa4be6d" x="935.738182" y="444.646721" style="fill: #9467bd; stroke: #9467bd"/>
     <use xlink:href="#m2e5aa4be6d" x="1000.669091" y="442.837218" style="fill: #9467bd; stroke: #9467bd"/>
     <use xlink:href="#m2e5aa4be6d" x="1065.6" y="366.492502" style="fill: #9467bd; stroke: #9467bd"/>
     <use xlink:href="#m2e5aa4be6d" x="1130.530909" y="376.226617" style="fill: #9467bd; stroke: #9467bd"/>
     <use xlink:href="#m2e5aa4be6d" x="1195.461818" y="392.851999" style="fill: #9467bd; stroke: #9467bd"/>
    </g>
   </g>
   <g id="patch_3">
    <path d="M 172.8 624.78 
L 172.8 84.24 
" style="fill: none; stroke: #000000; stroke-width: 0.8; stroke-linejoin: miter; stroke-linecap: square"/>
   </g>
   <g id="patch_4">
    <path d="M 1244.16 624.78 
L 1244.16 84.24 
" style="fill: none; stroke: #000000; stroke-width: 0.8; stroke-linejoin: miter; stroke-linecap: square"/>
   </g>
   <g id="patch_5">
    <path d="M 172.8 624.78 
L 1244.16 624.78 
" style="fill: none; stroke: #000000; stroke-width: 0.8; stroke-linejoin: miter; stroke-linecap: square"/>
   </g>
   <g id="patch_6">
    <path d="M 172.8 84.24 
L 1244.16 84.24 
" style="fill: none; stroke: #000000; stroke-width: 0.8; stroke-linejoin: miter; stroke-linecap: square"/>
   </g>
   <g id="line2d_46">
    <path d="M 221.498182 399.960956 
L 286.429091 387.475387 
L 351.36 371.320867 
L 416.290909 404.523407 
L 481.221818 469.425428 
L 546.152727 417.757003 
L 611.083636 389.775844 
L 676.014545 472.976233 
L 740.945455 429.028851 
L 805.876364 360.858473 
L 870.807273 378.075961 
L 935.738182 407.305517 
L 1000.669091 398.366504 
L 1065.6 462.868965 
L 1130.530909 413.165734 
L 1195.461818 384.543326 
" clip-path="url(#p0e1e297c2c)" style="fill: none; stroke: #ff0000; stroke-width: 5; stroke-linecap: square"/>
   </g>
   <g id="text_23">
    <!-- Intel(R) Core(TM) i7-7700 CPU @ 3.60GHz -->
    <g transform="translate(477.729219 78.24) scale(0.22 -0.22)">
     <defs>
      <path id="DejaVuSans-49" d="M 628 4666 
L 1259 4666 
L 1259 0 
L 628 0 
L 628 4666 
z
" transform="scale(0.015625)"/>
      <path id="DejaVuSans-6e" d="M 3513 2113 
L 3513 0 
L 2938 0 
L 2938 2094 
Q 2938 2591 2744 2837 
Q 2550 3084 2163 3084 
Q 1697 3084 1428 2787 
Q 1159 2491 1159 1978 
L 1159 0 
L 581 0 
L 581 3500 
L 1159 3500 
L 1159 2956 
Q 1366 3272 1645 3428 
Q 1925 3584 2291 3584 
Q 2894 3584 3203 3211 
Q 3513 2838 3513 2113 
z
" transform="scale(0.015625)"/>
      <path id="DejaVuSans-74" d="M 1172 4494 
L 1172 3500 
L 2356 3500 
L 2356 3053 
L 1172 3053 
L 1172 1153 
Q 1172 725 1289 603 
Q 1406 481 1766 481 
L 2356 481 
L 2356 0 
L 1766 0 
Q 1100 0 847 248 
Q 594 497 594 1153 
L 594 3053 
L 172 3053 
L 172 3500 
L 594 3500 
L 594 4494 
L 1172 4494 
z
" transform="scale(0.015625)"/>
      <path id="DejaVuSans-6c" d="M 603 4863 
L 1178 4863 
L 1178 0 
L 603 0 
L 603 4863 
z
" transform="scale(0.015625)"/>
      <path id="DejaVuSans-52" d="M 2841 2188 
Q 3044 2119 3236 1894 
Q 3428 1669 3622 1275 
L 4263 0 
L 3584 0 
L 2988 1197 
Q 2756 1666 2539 1819 
Q 2322 1972 1947 1972 
L 1259 1972 
L 1259 0 
L 628 0 
L 628 4666 
L 2053 4666 
Q 2853 4666 3247 4331 
Q 3641 3997 3641 3322 
Q 3641 2881 3436 2590 
Q 3231 2300 2841 2188 
z
M 1259 4147 
L 1259 2491 
L 2053 2491 
Q 2509 2491 2742 2702 
Q 2975 2913 2975 3322 
Q 2975 3731 2742 3939 
Q 2509 4147 2053 4147 
L 1259 4147 
z
" transform="scale(0.015625)"/>
      <path id="DejaVuSans-43" d="M 4122 4306 
L 4122 3641 
Q 3803 3938 3442 4084 
Q 3081 4231 2675 4231 
Q 1875 4231 1450 3742 
Q 1025 3253 1025 2328 
Q 1025 1406 1450 917 
Q 1875 428 2675 428 
Q 3081 428 3442 575 
Q 3803 722 4122 1019 
L 4122 359 
Q 3791 134 3420 21 
Q 3050 -91 2638 -91 
Q 1578 -91 968 557 
Q 359 1206 359 2328 
Q 359 3453 968 4101 
Q 1578 4750 2638 4750 
Q 3056 4750 3426 4639 
Q 3797 4528 4122 4306 
z
" transform="scale(0.015625)"/>
      <path id="DejaVuSans-6f" d="M 1959 3097 
Q 1497 3097 1228 2736 
Q 959 2375 959 1747 
Q 959 1119 1226 758 
Q 1494 397 1959 397 
Q 2419 397 2687 759 
Q 2956 1122 2956 1747 
Q 2956 2369 2687 2733 
Q 2419 3097 1959 3097 
z
M 1959 3584 
Q 2709 3584 3137 3096 
Q 3566 2609 3566 1747 
Q 3566 888 3137 398 
Q 2709 -91 1959 -91 
Q 1206 -91 779 398 
Q 353 888 353 1747 
Q 353 2609 779 3096 
Q 1206 3584 1959 3584 
z
" transform="scale(0.015625)"/>
      <path id="DejaVuSans-4d" d="M 628 4666 
L 1569 4666 
L 2759 1491 
L 3956 4666 
L 4897 4666 
L 4897 0 
L 4281 0 
L 4281 4097 
L 3078 897 
L 2444 897 
L 1241 4097 
L 1241 0 
L 628 0 
L 628 4666 
z
" transform="scale(0.015625)"/>
      <path id="DejaVuSans-2d" d="M 313 2009 
L 1997 2009 
L 1997 1497 
L 313 1497 
L 313 2009 
z
" transform="scale(0.015625)"/>
      <path id="DejaVuSans-50" d="M 1259 4147 
L 1259 2394 
L 2053 2394 
Q 2494 2394 2734 2622 
Q 2975 2850 2975 3272 
Q 2975 3691 2734 3919 
Q 2494 4147 2053 4147 
L 1259 4147 
z
M 628 4666 
L 2053 4666 
Q 2838 4666 3239 4311 
Q 3641 3956 3641 3272 
Q 3641 2581 3239 2228 
Q 2838 1875 2053 1875 
L 1259 1875 
L 1259 0 
L 628 0 
L 628 4666 
z
" transform="scale(0.015625)"/>
      <path id="DejaVuSans-55" d="M 556 4666 
L 1191 4666 
L 1191 1831 
Q 1191 1081 1462 751 
Q 1734 422 2344 422 
Q 2950 422 3222 751 
Q 3494 1081 3494 1831 
L 3494 4666 
L 4128 4666 
L 4128 1753 
Q 4128 841 3676 375 
Q 3225 -91 2344 -91 
Q 1459 -91 1007 375 
Q 556 841 556 1753 
L 556 4666 
z
" transform="scale(0.015625)"/>
      <path id="DejaVuSans-40" d="M 2381 1678 
Q 2381 1231 2603 976 
Q 2825 722 3213 722 
Q 3597 722 3817 978 
Q 4038 1234 4038 1678 
Q 4038 2116 3813 2373 
Q 3588 2631 3206 2631 
Q 2828 2631 2604 2375 
Q 2381 2119 2381 1678 
z
M 4084 744 
Q 3897 503 3655 389 
Q 3413 275 3091 275 
Q 2553 275 2217 664 
Q 1881 1053 1881 1678 
Q 1881 2303 2218 2693 
Q 2556 3084 3091 3084 
Q 3413 3084 3656 2967 
Q 3900 2850 4084 2613 
L 4084 3022 
L 4531 3022 
L 4531 722 
Q 4988 791 5245 1139 
Q 5503 1488 5503 2041 
Q 5503 2375 5404 2669 
Q 5306 2963 5106 3213 
Q 4781 3622 4314 3839 
Q 3847 4056 3297 4056 
Q 2913 4056 2559 3954 
Q 2206 3853 1906 3653 
Q 1416 3334 1139 2817 
Q 863 2300 863 1697 
Q 863 1200 1042 765 
Q 1222 331 1563 0 
Q 1891 -325 2322 -495 
Q 2753 -666 3244 -666 
Q 3647 -666 4036 -530 
Q 4425 -394 4750 -141 
L 5031 -488 
Q 4641 -791 4180 -952 
Q 3719 -1113 3244 -1113 
Q 2666 -1113 2153 -908 
Q 1641 -703 1241 -313 
Q 841 78 631 592 
Q 422 1106 422 1697 
Q 422 2266 634 2781 
Q 847 3297 1241 3688 
Q 1644 4084 2172 4295 
Q 2700 4506 3291 4506 
Q 3953 4506 4520 4234 
Q 5088 3963 5472 3463 
Q 5706 3156 5829 2797 
Q 5953 2438 5953 2053 
Q 5953 1231 5456 756 
Q 4959 281 4084 263 
L 4084 744 
z
" transform="scale(0.015625)"/>
      <path id="DejaVuSans-47" d="M 3809 666 
L 3809 1919 
L 2778 1919 
L 2778 2438 
L 4434 2438 
L 4434 434 
Q 4069 175 3628 42 
Q 3188 -91 2688 -91 
Q 1594 -91 976 548 
Q 359 1188 359 2328 
Q 359 3472 976 4111 
Q 1594 4750 2688 4750 
Q 3144 4750 3555 4637 
Q 3966 4525 4313 4306 
L 4313 3634 
Q 3963 3931 3569 4081 
Q 3175 4231 2741 4231 
Q 1884 4231 1454 3753 
Q 1025 3275 1025 2328 
Q 1025 1384 1454 906 
Q 1884 428 2741 428 
Q 3075 428 3337 486 
Q 3600 544 3809 666 
z
" transform="scale(0.015625)"/>
      <path id="DejaVuSans-48" d="M 628 4666 
L 1259 4666 
L 1259 2753 
L 3553 2753 
L 3553 4666 
L 4184 4666 
L 4184 0 
L 3553 0 
L 3553 2222 
L 1259 2222 
L 1259 0 
L 628 0 
L 628 4666 
z
" transform="scale(0.015625)"/>
      <path id="DejaVuSans-7a" d="M 353 3500 
L 3084 3500 
L 3084 2975 
L 922 459 
L 3084 459 
L 3084 0 
L 275 0 
L 275 525 
L 2438 3041 
L 353 3041 
L 353 3500 
z
" transform="scale(0.015625)"/>
     </defs>
     <use xlink:href="#DejaVuSans-49"/>
     <use xlink:href="#DejaVuSans-6e" x="29.492188"/>
     <use xlink:href="#DejaVuSans-74" x="92.871094"/>
     <use xlink:href="#DejaVuSans-65" x="132.080078"/>
     <use xlink:href="#DejaVuSans-6c" x="193.603516"/>
     <use xlink:href="#DejaVuSans-28" x="221.386719"/>
     <use xlink:href="#DejaVuSans-52" x="260.400391"/>
     <use xlink:href="#DejaVuSans-29" x="329.882812"/>
     <use xlink:href="#DejaVuSans-20" x="368.896484"/>
     <use xlink:href="#DejaVuSans-43" x="400.683594"/>
     <use xlink:href="#DejaVuSans-6f" x="470.507812"/>
     <use xlink:href="#DejaVuSans-72" x="531.689453"/>
     <use xlink:href="#DejaVuSans-65" x="570.552734"/>
     <use xlink:href="#DejaVuSans-28" x="632.076172"/>
     <use xlink:href="#DejaVuSans-54" x="671.089844"/>
     <use xlink:href="#DejaVuSans-4d" x="732.173828"/>
     <use xlink:href="#DejaVuSans-29" x="818.453125"/>
     <use xlink:href="#DejaVuSans-20" x="857.466797"/>
     <use xlink:href="#DejaVuSans-69" x="889.253906"/>
     <use xlink:href="#DejaVuSans-37" x="917.037109"/>
     <use xlink:href="#DejaVuSans-2d" x="980.660156"/>
     <use xlink:href="#DejaVuSans-37" x="1016.744141"/>
     <use xlink:href="#DejaVuSans-37" x="1080.367188"/>
     <use xlink:href="#DejaVuSans-30" x="1143.990234"/>
     <use xlink:href="#DejaVuSans-30" x="1207.613281"/>
     <use xlink:href="#DejaVuSans-20" x="1271.236328"/>
     <use xlink:href="#DejaVuSans-43" x="1303.023438"/>
     <use xlink:href="#DejaVuSans-50" x="1372.847656"/>
     <use xlink:href="#DejaVuSans-55" x="1433.150391"/>
     <use xlink:href="#DejaVuSans-20" x="1506.34375"/>
     <use xlink:href="#DejaVuSans-40" x="1538.130859"/>
     <use xlink:href="#DejaVuSans-20" x="1638.130859"/>
     <use xlink:href="#DejaVuSans-33" x="1669.917969"/>
     <use xlink:href="#DejaVuSans-2e" x="1733.541016"/>
     <use xlink:href="#DejaVuSans-36" x="1765.328125"/>
     <use xlink:href="#DejaVuSans-30" x="1828.951172"/>
     <use xlink:href="#DejaVuSans-47" x="1892.574219"/>
     <use xlink:href="#DejaVuSans-48" x="1970.064453"/>
     <use xlink:href="#DejaVuSans-7a" x="2045.259766"/>
    </g>
   </g>
   <g id="PathCollection_6">
    <defs>
     <path id="mf27d25489e" d="M 0 3.535534 
C 0.937635 3.535534 1.836992 3.163008 2.5 2.5 
C 3.163008 1.836992 3.535534 0.937635 3.535534 0 
C 3.535534 -0.937635 3.163008 -1.836992 2.5 -2.5 
C 1.836992 -3.163008 0.937635 -3.535534 0 -3.535534 
C -0.937635 -3.535534 -1.836992 -3.163008 -2.5 -2.5 
C -3.163008 -1.836992 -3.535534 -0.937635 -3.535534 0 
C -3.535534 0.937635 -3.163008 1.836992 -2.5 2.5 
C -1.836992 3.163008 -0.937635 3.535534 0 3.535534 
z
" style="stroke: #0000ff"/>
    </defs>
    <g clip-path="url(#p0e1e297c2c)">
     <use xlink:href="#mf27d25489e" x="221.498182" y="399.960956" style="fill: #0000ff; stroke: #0000ff"/>
     <use xlink:href="#mf27d25489e" x="286.429091" y="387.475387" style="fill: #0000ff; stroke: #0000ff"/>
     <use xlink:href="#mf27d25489e" x="351.36" y="371.320867" style="fill: #0000ff; stroke: #0000ff"/>
     <use xlink:href="#mf27d25489e" x="416.290909" y="404.523407" style="fill: #0000ff; stroke: #0000ff"/>
     <use xlink:href="#mf27d25489e" x="481.221818" y="469.425428" style="fill: #0000ff; stroke: #0000ff"/>
     <use xlink:href="#mf27d25489e" x="546.152727" y="417.757003" style="fill: #0000ff; stroke: #0000ff"/>
     <use xlink:href="#mf27d25489e" x="611.083636" y="389.775844" style="fill: #0000ff; stroke: #0000ff"/>
     <use xlink:href="#mf27d25489e" x="676.014545" y="472.976233" style="fill: #0000ff; stroke: #0000ff"/>
     <use xlink:href="#mf27d25489e" x="740.945455" y="429.028851" style="fill: #0000ff; stroke: #0000ff"/>
     <use xlink:href="#mf27d25489e" x="805.876364" y="360.858473" style="fill: #0000ff; stroke: #0000ff"/>
     <use xlink:href="#mf27d25489e" x="870.807273" y="378.075961" style="fill: #0000ff; stroke: #0000ff"/>
     <use xlink:href="#mf27d25489e" x="935.738182" y="407.305517" style="fill: #0000ff; stroke: #0000ff"/>
     <use xlink:href="#mf27d25489e" x="1000.669091" y="398.366504" style="fill: #0000ff; stroke: #0000ff"/>
     <use xlink:href="#mf27d25489e" x="1065.6" y="462.868965" style="fill: #0000ff; stroke: #0000ff"/>
     <use xlink:href="#mf27d25489e" x="1130.530909" y="413.165734" style="fill: #0000ff; stroke: #0000ff"/>
     <use xlink:href="#mf27d25489e" x="1195.461818" y="384.543326" style="fill: #0000ff; stroke: #0000ff"/>
    </g>
   </g>
   <g id="legend_1">
    <g id="patch_7">
     <path d="M 1253.16 402.044375 
L 1326.225625 402.044375 
Q 1328.225625 402.044375 1328.225625 400.044375 
L 1328.225625 312.975625 
Q 1328.225625 310.975625 1326.225625 310.975625 
L 1253.16 310.975625 
Q 1251.16 310.975625 1251.16 312.975625 
L 1251.16 400.044375 
Q 1251.16 402.044375 1253.16 402.044375 
z
" style="fill: #4c4c4c; opacity: 0.5; stroke: #4c4c4c; stroke-linejoin: miter"/>
    </g>
    <g id="patch_8">
     <path d="M 1251.16 400.044375 
L 1324.225625 400.044375 
Q 1326.225625 400.044375 1326.225625 398.044375 
L 1326.225625 310.975625 
Q 1326.225625 308.975625 1324.225625 308.975625 
L 1251.16 308.975625 
Q 1249.16 308.975625 1249.16 310.975625 
L 1249.16 398.044375 
Q 1249.16 400.044375 1251.16 400.044375 
z
" style="fill: #ffffff; stroke: #cccccc; stroke-linejoin: miter"/>
    </g>
    <g id="line2d_47">
     <path d="M 1253.16 317.074063 
L 1263.16 317.074063 
L 1273.16 317.074063 
" style="fill: none; stroke: #ff0000; stroke-width: 5; stroke-linecap: square"/>
    </g>
    <g id="text_24">
     <!-- Average -->
     <g transform="translate(1281.16 320.574063) scale(0.1 -0.1)">
      <defs>
       <path id="DejaVuSans-41" d="M 2188 4044 
L 1331 1722 
L 3047 1722 
L 2188 4044 
z
M 1831 4666 
L 2547 4666 
L 4325 0 
L 3669 0 
L 3244 1197 
L 1141 1197 
L 716 0 
L 50 0 
L 1831 4666 
z
" transform="scale(0.015625)"/>
       <path id="DejaVuSans-76" d="M 191 3500 
L 800 3500 
L 1894 563 
L 2988 3500 
L 3597 3500 
L 2284 0 
L 1503 0 
L 191 3500 
z
" transform="scale(0.015625)"/>
       <path id="DejaVuSans-67" d="M 2906 1791 
Q 2906 2416 2648 2759 
Q 2391 3103 1925 3103 
Q 1463 3103 1205 2759 
Q 947 2416 947 1791 
Q 947 1169 1205 825 
Q 1463 481 1925 481 
Q 2391 481 2648 825 
Q 2906 1169 2906 1791 
z
M 3481 434 
Q 3481 -459 3084 -895 
Q 2688 -1331 1869 -1331 
Q 1566 -1331 1297 -1286 
Q 1028 -1241 775 -1147 
L 775 -588 
Q 1028 -725 1275 -790 
Q 1522 -856 1778 -856 
Q 2344 -856 2625 -561 
Q 2906 -266 2906 331 
L 2906 616 
Q 2728 306 2450 153 
Q 2172 0 1784 0 
Q 1141 0 747 490 
Q 353 981 353 1791 
Q 353 2603 747 3093 
Q 1141 3584 1784 3584 
Q 2172 3584 2450 3431 
Q 2728 3278 2906 2969 
L 2906 3500 
L 3481 3500 
L 3481 434 
z
" transform="scale(0.015625)"/>
      </defs>
      <use xlink:href="#DejaVuSans-41"/>
      <use xlink:href="#DejaVuSans-76" x="62.533203"/>
      <use xlink:href="#DejaVuSans-65" x="121.712891"/>
      <use xlink:href="#DejaVuSans-72" x="183.236328"/>
      <use xlink:href="#DejaVuSans-61" x="224.349609"/>
      <use xlink:href="#DejaVuSans-67" x="285.628906"/>
      <use xlink:href="#DejaVuSans-65" x="349.105469"/>
     </g>
    </g>
    <g id="line2d_48">
     <path d="M 1253.16 331.752188 
L 1263.16 331.752188 
L 1273.16 331.752188 
" style="fill: none; stroke: #1f77b4; stroke-linecap: square"/>
    </g>
    <g id="text_25">
     <!-- Test 1 -->
     <g transform="translate(1281.16 335.252188) scale(0.1 -0.1)">
      <use xlink:href="#DejaVuSans-54"/>
      <use xlink:href="#DejaVuSans-65" x="44.083984"/>
      <use xlink:href="#DejaVuSans-73" x="105.607422"/>
      <use xlink:href="#DejaVuSans-74" x="157.707031"/>
      <use xlink:href="#DejaVuSans-20" x="196.916016"/>
      <use xlink:href="#DejaVuSans-31" x="228.703125"/>
     </g>
    </g>
    <g id="line2d_49">
     <path d="M 1253.16 346.430313 
L 1263.16 346.430313 
L 1273.16 346.430313 
" style="fill: none; stroke: #ff7f0e; stroke-linecap: square"/>
    </g>
    <g id="text_26">
     <!-- Test 2 -->
     <g transform="translate(1281.16 349.930313) scale(0.1 -0.1)">
      <use xlink:href="#DejaVuSans-54"/>
      <use xlink:href="#DejaVuSans-65" x="44.083984"/>
      <use xlink:href="#DejaVuSans-73" x="105.607422"/>
      <use xlink:href="#DejaVuSans-74" x="157.707031"/>
      <use xlink:href="#DejaVuSans-20" x="196.916016"/>
      <use xlink:href="#DejaVuSans-32" x="228.703125"/>
     </g>
    </g>
    <g id="line2d_50">
     <path d="M 1253.16 361.108438 
L 1263.16 361.108438 
L 1273.16 361.108438 
" style="fill: none; stroke: #2ca02c; stroke-linecap: square"/>
    </g>
    <g id="text_27">
     <!-- Test 3 -->
     <g transform="translate(1281.16 364.608438) scale(0.1 -0.1)">
      <use xlink:href="#DejaVuSans-54"/>
      <use xlink:href="#DejaVuSans-65" x="44.083984"/>
      <use xlink:href="#DejaVuSans-73" x="105.607422"/>
      <use xlink:href="#DejaVuSans-74" x="157.707031"/>
      <use xlink:href="#DejaVuSans-20" x="196.916016"/>
      <use xlink:href="#DejaVuSans-33" x="228.703125"/>
     </g>
    </g>
    <g id="line2d_51">
     <path d="M 1253.16 375.786563 
L 1263.16 375.786563 
L 1273.16 375.786563 
" style="fill: none; stroke: #d62728; stroke-linecap: square"/>
    </g>
    <g id="text_28">
     <!-- Test 4 -->
     <g transform="translate(1281.16 379.286563) scale(0.1 -0.1)">
      <use xlink:href="#DejaVuSans-54"/>
      <use xlink:href="#DejaVuSans-65" x="44.083984"/>
      <use xlink:href="#DejaVuSans-73" x="105.607422"/>
      <use xlink:href="#DejaVuSans-74" x="157.707031"/>
      <use xlink:href="#DejaVuSans-20" x="196.916016"/>
      <use xlink:href="#DejaVuSans-34" x="228.703125"/>
     </g>
    </g>
    <g id="line2d_52">
     <path d="M 1253.16 390.464688 
L 1263.16 390.464688 
L 1273.16 390.464688 
" style="fill: none; stroke: #9467bd; stroke-linecap: square"/>
    </g>
    <g id="text_29">
     <!-- Test 5 -->
     <g transform="translate(1281.16 393.964688) scale(0.1 -0.1)">
      <use xlink:href="#DejaVuSans-54"/>
      <use xlink:href="#DejaVuSans-65" x="44.083984"/>
      <use xlink:href="#DejaVuSans-73" x="105.607422"/>
      <use xlink:href="#DejaVuSans-74" x="157.707031"/>
      <use xlink:href="#DejaVuSans-20" x="196.916016"/>
      <use xlink:href="#DejaVuSans-35" x="228.703125"/>
     </g>
    </g>
   </g>
  </g>
 </g>
 <defs>
  <clipPath id="p0e1e297c2c">
   <rect x="172.8" y="84.24" width="1071.36" height="540.54"/>
  </clipPath>
 </defs>
</svg>
