<?xml version="1.0" encoding="utf-8" standalone="no"?>
<!DOCTYPE svg PUBLIC "-//W3C//DTD SVG 1.1//EN"
  "http://www.w3.org/Graphics/SVG/1.1/DTD/svg11.dtd">
<svg xmlns:xlink="http://www.w3.org/1999/xlink" width="936pt" height="648pt" viewBox="0 0 936 648" xmlns="http://www.w3.org/2000/svg" version="1.1">
 <metadata>
  <rdf:RDF xmlns:dc="http://purl.org/dc/elements/1.1/" xmlns:cc="http://creativecommons.org/ns#" xmlns:rdf="http://www.w3.org/1999/02/22-rdf-syntax-ns#">
   <cc:Work>
    <dc:type rdf:resource="http://purl.org/dc/dcmitype/StillImage"/>
    <dc:date>2022-11-20T13:22:35.992728</dc:date>
    <dc:format>image/svg+xml</dc:format>
    <dc:creator>
     <cc:Agent>
      <dc:title>Matplotlib v3.5.1, https://matplotlib.org/</dc:title>
     </cc:Agent>
    </dc:creator>
   </cc:Work>
  </rdf:RDF>
 </metadata>
 <defs>
  <style type="text/css">*{stroke-linejoin: round; stroke-linecap: butt}</style>
 </defs>
 <g id="figure_1">
  <g id="patch_1">
   <path d="M 0 648 
L 936 648 
L 936 0 
L 0 0 
z
" style="fill: #ffffff"/>
  </g>
  <g id="axes_1">
   <g id="patch_2">
    <path d="M 117 576.72 
L 842.4 576.72 
L 842.4 77.76 
L 117 77.76 
z
" style="fill: #ffffff"/>
   </g>
   <g id="line2d_1">
    <path d="M 149.972727 459.175324 
L 193.936364 464.017064 
L 237.9 476.698832 
L 281.863636 430.424244 
L 325.827273 267.898822 
L 369.790909 302.262106 
L 413.754545 402.88549 
L 457.718182 505.126247 
L 501.681818 472.928555 
L 545.645455 247.504798 
L 589.609091 496.868323 
L 633.572727 380.902061 
L 677.536364 303.372223 
L 721.5 486.575979 
L 765.463636 452.919681 
L 809.427273 482.239035 
" clip-path="url(#pd684ce8b81)" style="fill: none; stroke: #1f77b4; stroke-linecap: square"/>
   </g>
   <g id="line2d_2">
    <path d="M 149.972727 528.483955 
L 193.936364 449.478092 
L 237.9 455.745846 
L 281.863636 340.004925 
L 325.827273 448.887853 
L 369.790909 453.518185 
L 413.754545 412.23598 
L 457.718182 474.782281 
L 501.681818 445.224256 
L 545.645455 401.505969 
L 589.609091 348.499341 
L 633.572727 517.032468 
L 677.536364 456.420288 
L 721.5 100.44 
L 765.463636 509.182904 
L 809.427273 490.159088 
" clip-path="url(#pd684ce8b81)" style="fill: none; stroke: #ff7f0e; stroke-linecap: square"/>
   </g>
   <g id="line2d_3">
    <path d="M 149.972727 554.04 
L 193.936364 496.265603 
L 237.9 507.382473 
L 281.863636 457.685449 
L 325.827273 454.466401 
L 369.790909 464.502079 
L 413.754545 503.427815 
L 457.718182 506.421265 
L 501.681818 507.134738 
L 545.645455 504.614492 
L 589.609091 428.574245 
L 633.572727 192.128442 
L 677.536364 334.697375 
L 721.5 472.893259 
L 765.463636 400.574936 
L 809.427273 468.045534 
" clip-path="url(#pd684ce8b81)" style="fill: none; stroke: #2ca02c; stroke-linecap: square"/>
   </g>
   <g id="line2d_4">
    <path d="M 149.972727 525.611623 
L 193.936364 537.403754 
L 237.9 497.008293 
L 281.863636 486.508083 
L 325.827273 519.885858 
L 369.790909 504.559081 
L 413.754545 382.504819 
L 457.718182 410.46863 
L 501.681818 500.227336 
L 545.645455 403.956056 
L 589.609091 520.238292 
L 633.572727 500.650063 
L 677.536364 481.627325 
L 721.5 514.304009 
L 765.463636 290.055135 
L 809.427273 408.767334 
" clip-path="url(#pd684ce8b81)" style="fill: none; stroke: #d62728; stroke-linecap: square"/>
   </g>
   <g id="line2d_5">
    <path d="M 149.972727 525.869477 
L 193.936364 496.536664 
L 237.9 457.650496 
L 281.863636 482.113877 
L 325.827273 478.932371 
L 369.790909 499.782529 
L 413.754545 448.598837 
L 457.718182 507.465486 
L 501.681818 476.443858 
L 545.645455 525.577855 
L 589.609091 496.781445 
L 633.572727 341.7213 
L 677.536364 190.524951 
L 721.5 362.139728 
L 765.463636 478.317346 
L 809.427273 483.807226 
" clip-path="url(#pd684ce8b81)" style="fill: none; stroke: #9467bd; stroke-linecap: square"/>
   </g>
   <g id="matplotlib.axis_1">
    <g id="xtick_1">
     <g id="line2d_6">
      <path d="M 149.972727 576.72 
L 149.972727 77.76 
" clip-path="url(#pd684ce8b81)" style="fill: none; stroke: #b0b0b0; stroke-width: 0.8; stroke-linecap: square"/>
     </g>
     <g id="line2d_7">
      <defs>
       <path id="m832c7459ef" d="M 0 0 
L 0 3.5 
" style="stroke: #000000; stroke-width: 0.8"/>
      </defs>
      <g>
       <use xlink:href="#m832c7459ef" x="149.972727" y="576.72" style="stroke: #000000; stroke-width: 0.8"/>
      </g>
     </g>
     <g id="text_1">
      <!-- 1 -->
      <g transform="translate(146.791477 591.318438)scale(0.1 -0.1)">
       <defs>
        <path id="DejaVuSans-31" d="M 794 531 
L 1825 531 
L 1825 4091 
L 703 3866 
L 703 4441 
L 1819 4666 
L 2450 4666 
L 2450 531 
L 3481 531 
L 3481 0 
L 794 0 
L 794 531 
z
" transform="scale(0.015625)"/>
       </defs>
       <use xlink:href="#DejaVuSans-31"/>
      </g>
     </g>
    </g>
    <g id="xtick_2">
     <g id="line2d_8">
      <path d="M 193.936364 576.72 
L 193.936364 77.76 
" clip-path="url(#pd684ce8b81)" style="fill: none; stroke: #b0b0b0; stroke-width: 0.8; stroke-linecap: square"/>
     </g>
     <g id="line2d_9">
      <g>
       <use xlink:href="#m832c7459ef" x="193.936364" y="576.72" style="stroke: #000000; stroke-width: 0.8"/>
      </g>
     </g>
     <g id="text_2">
      <!-- 2 -->
      <g transform="translate(190.755114 591.318438)scale(0.1 -0.1)">
       <defs>
        <path id="DejaVuSans-32" d="M 1228 531 
L 3431 531 
L 3431 0 
L 469 0 
L 469 531 
Q 828 903 1448 1529 
Q 2069 2156 2228 2338 
Q 2531 2678 2651 2914 
Q 2772 3150 2772 3378 
Q 2772 3750 2511 3984 
Q 2250 4219 1831 4219 
Q 1534 4219 1204 4116 
Q 875 4013 500 3803 
L 500 4441 
Q 881 4594 1212 4672 
Q 1544 4750 1819 4750 
Q 2544 4750 2975 4387 
Q 3406 4025 3406 3419 
Q 3406 3131 3298 2873 
Q 3191 2616 2906 2266 
Q 2828 2175 2409 1742 
Q 1991 1309 1228 531 
z
" transform="scale(0.015625)"/>
       </defs>
       <use xlink:href="#DejaVuSans-32"/>
      </g>
     </g>
    </g>
    <g id="xtick_3">
     <g id="line2d_10">
      <path d="M 237.9 576.72 
L 237.9 77.76 
" clip-path="url(#pd684ce8b81)" style="fill: none; stroke: #b0b0b0; stroke-width: 0.8; stroke-linecap: square"/>
     </g>
     <g id="line2d_11">
      <g>
       <use xlink:href="#m832c7459ef" x="237.9" y="576.72" style="stroke: #000000; stroke-width: 0.8"/>
      </g>
     </g>
     <g id="text_3">
      <!-- 3 -->
      <g transform="translate(234.71875 591.318438)scale(0.1 -0.1)">
       <defs>
        <path id="DejaVuSans-33" d="M 2597 2516 
Q 3050 2419 3304 2112 
Q 3559 1806 3559 1356 
Q 3559 666 3084 287 
Q 2609 -91 1734 -91 
Q 1441 -91 1130 -33 
Q 819 25 488 141 
L 488 750 
Q 750 597 1062 519 
Q 1375 441 1716 441 
Q 2309 441 2620 675 
Q 2931 909 2931 1356 
Q 2931 1769 2642 2001 
Q 2353 2234 1838 2234 
L 1294 2234 
L 1294 2753 
L 1863 2753 
Q 2328 2753 2575 2939 
Q 2822 3125 2822 3475 
Q 2822 3834 2567 4026 
Q 2313 4219 1838 4219 
Q 1578 4219 1281 4162 
Q 984 4106 628 3988 
L 628 4550 
Q 988 4650 1302 4700 
Q 1616 4750 1894 4750 
Q 2613 4750 3031 4423 
Q 3450 4097 3450 3541 
Q 3450 3153 3228 2886 
Q 3006 2619 2597 2516 
z
" transform="scale(0.015625)"/>
       </defs>
       <use xlink:href="#DejaVuSans-33"/>
      </g>
     </g>
    </g>
    <g id="xtick_4">
     <g id="line2d_12">
      <path d="M 281.863636 576.72 
L 281.863636 77.76 
" clip-path="url(#pd684ce8b81)" style="fill: none; stroke: #b0b0b0; stroke-width: 0.8; stroke-linecap: square"/>
     </g>
     <g id="line2d_13">
      <g>
       <use xlink:href="#m832c7459ef" x="281.863636" y="576.72" style="stroke: #000000; stroke-width: 0.8"/>
      </g>
     </g>
     <g id="text_4">
      <!-- 4 -->
      <g transform="translate(278.682386 591.318438)scale(0.1 -0.1)">
       <defs>
        <path id="DejaVuSans-34" d="M 2419 4116 
L 825 1625 
L 2419 1625 
L 2419 4116 
z
M 2253 4666 
L 3047 4666 
L 3047 1625 
L 3713 1625 
L 3713 1100 
L 3047 1100 
L 3047 0 
L 2419 0 
L 2419 1100 
L 313 1100 
L 313 1709 
L 2253 4666 
z
" transform="scale(0.015625)"/>
       </defs>
       <use xlink:href="#DejaVuSans-34"/>
      </g>
     </g>
    </g>
    <g id="xtick_5">
     <g id="line2d_14">
      <path d="M 325.827273 576.72 
L 325.827273 77.76 
" clip-path="url(#pd684ce8b81)" style="fill: none; stroke: #b0b0b0; stroke-width: 0.8; stroke-linecap: square"/>
     </g>
     <g id="line2d_15">
      <g>
       <use xlink:href="#m832c7459ef" x="325.827273" y="576.72" style="stroke: #000000; stroke-width: 0.8"/>
      </g>
     </g>
     <g id="text_5">
      <!-- 5 -->
      <g transform="translate(322.646023 591.318438)scale(0.1 -0.1)">
       <defs>
        <path id="DejaVuSans-35" d="M 691 4666 
L 3169 4666 
L 3169 4134 
L 1269 4134 
L 1269 2991 
Q 1406 3038 1543 3061 
Q 1681 3084 1819 3084 
Q 2600 3084 3056 2656 
Q 3513 2228 3513 1497 
Q 3513 744 3044 326 
Q 2575 -91 1722 -91 
Q 1428 -91 1123 -41 
Q 819 9 494 109 
L 494 744 
Q 775 591 1075 516 
Q 1375 441 1709 441 
Q 2250 441 2565 725 
Q 2881 1009 2881 1497 
Q 2881 1984 2565 2268 
Q 2250 2553 1709 2553 
Q 1456 2553 1204 2497 
Q 953 2441 691 2322 
L 691 4666 
z
" transform="scale(0.015625)"/>
       </defs>
       <use xlink:href="#DejaVuSans-35"/>
      </g>
     </g>
    </g>
    <g id="xtick_6">
     <g id="line2d_16">
      <path d="M 369.790909 576.72 
L 369.790909 77.76 
" clip-path="url(#pd684ce8b81)" style="fill: none; stroke: #b0b0b0; stroke-width: 0.8; stroke-linecap: square"/>
     </g>
     <g id="line2d_17">
      <g>
       <use xlink:href="#m832c7459ef" x="369.790909" y="576.72" style="stroke: #000000; stroke-width: 0.8"/>
      </g>
     </g>
     <g id="text_6">
      <!-- 6 -->
      <g transform="translate(366.609659 591.318438)scale(0.1 -0.1)">
       <defs>
        <path id="DejaVuSans-36" d="M 2113 2584 
Q 1688 2584 1439 2293 
Q 1191 2003 1191 1497 
Q 1191 994 1439 701 
Q 1688 409 2113 409 
Q 2538 409 2786 701 
Q 3034 994 3034 1497 
Q 3034 2003 2786 2293 
Q 2538 2584 2113 2584 
z
M 3366 4563 
L 3366 3988 
Q 3128 4100 2886 4159 
Q 2644 4219 2406 4219 
Q 1781 4219 1451 3797 
Q 1122 3375 1075 2522 
Q 1259 2794 1537 2939 
Q 1816 3084 2150 3084 
Q 2853 3084 3261 2657 
Q 3669 2231 3669 1497 
Q 3669 778 3244 343 
Q 2819 -91 2113 -91 
Q 1303 -91 875 529 
Q 447 1150 447 2328 
Q 447 3434 972 4092 
Q 1497 4750 2381 4750 
Q 2619 4750 2861 4703 
Q 3103 4656 3366 4563 
z
" transform="scale(0.015625)"/>
       </defs>
       <use xlink:href="#DejaVuSans-36"/>
      </g>
     </g>
    </g>
    <g id="xtick_7">
     <g id="line2d_18">
      <path d="M 413.754545 576.72 
L 413.754545 77.76 
" clip-path="url(#pd684ce8b81)" style="fill: none; stroke: #b0b0b0; stroke-width: 0.8; stroke-linecap: square"/>
     </g>
     <g id="line2d_19">
      <g>
       <use xlink:href="#m832c7459ef" x="413.754545" y="576.72" style="stroke: #000000; stroke-width: 0.8"/>
      </g>
     </g>
     <g id="text_7">
      <!-- 7 -->
      <g transform="translate(410.573295 591.318438)scale(0.1 -0.1)">
       <defs>
        <path id="DejaVuSans-37" d="M 525 4666 
L 3525 4666 
L 3525 4397 
L 1831 0 
L 1172 0 
L 2766 4134 
L 525 4134 
L 525 4666 
z
" transform="scale(0.015625)"/>
       </defs>
       <use xlink:href="#DejaVuSans-37"/>
      </g>
     </g>
    </g>
    <g id="xtick_8">
     <g id="line2d_20">
      <path d="M 457.718182 576.72 
L 457.718182 77.76 
" clip-path="url(#pd684ce8b81)" style="fill: none; stroke: #b0b0b0; stroke-width: 0.8; stroke-linecap: square"/>
     </g>
     <g id="line2d_21">
      <g>
       <use xlink:href="#m832c7459ef" x="457.718182" y="576.72" style="stroke: #000000; stroke-width: 0.8"/>
      </g>
     </g>
     <g id="text_8">
      <!-- 8 -->
      <g transform="translate(454.536932 591.318438)scale(0.1 -0.1)">
       <defs>
        <path id="DejaVuSans-38" d="M 2034 2216 
Q 1584 2216 1326 1975 
Q 1069 1734 1069 1313 
Q 1069 891 1326 650 
Q 1584 409 2034 409 
Q 2484 409 2743 651 
Q 3003 894 3003 1313 
Q 3003 1734 2745 1975 
Q 2488 2216 2034 2216 
z
M 1403 2484 
Q 997 2584 770 2862 
Q 544 3141 544 3541 
Q 544 4100 942 4425 
Q 1341 4750 2034 4750 
Q 2731 4750 3128 4425 
Q 3525 4100 3525 3541 
Q 3525 3141 3298 2862 
Q 3072 2584 2669 2484 
Q 3125 2378 3379 2068 
Q 3634 1759 3634 1313 
Q 3634 634 3220 271 
Q 2806 -91 2034 -91 
Q 1263 -91 848 271 
Q 434 634 434 1313 
Q 434 1759 690 2068 
Q 947 2378 1403 2484 
z
M 1172 3481 
Q 1172 3119 1398 2916 
Q 1625 2713 2034 2713 
Q 2441 2713 2670 2916 
Q 2900 3119 2900 3481 
Q 2900 3844 2670 4047 
Q 2441 4250 2034 4250 
Q 1625 4250 1398 4047 
Q 1172 3844 1172 3481 
z
" transform="scale(0.015625)"/>
       </defs>
       <use xlink:href="#DejaVuSans-38"/>
      </g>
     </g>
    </g>
    <g id="xtick_9">
     <g id="line2d_22">
      <path d="M 501.681818 576.72 
L 501.681818 77.76 
" clip-path="url(#pd684ce8b81)" style="fill: none; stroke: #b0b0b0; stroke-width: 0.8; stroke-linecap: square"/>
     </g>
     <g id="line2d_23">
      <g>
       <use xlink:href="#m832c7459ef" x="501.681818" y="576.72" style="stroke: #000000; stroke-width: 0.8"/>
      </g>
     </g>
     <g id="text_9">
      <!-- 9 -->
      <g transform="translate(498.500568 591.318438)scale(0.1 -0.1)">
       <defs>
        <path id="DejaVuSans-39" d="M 703 97 
L 703 672 
Q 941 559 1184 500 
Q 1428 441 1663 441 
Q 2288 441 2617 861 
Q 2947 1281 2994 2138 
Q 2813 1869 2534 1725 
Q 2256 1581 1919 1581 
Q 1219 1581 811 2004 
Q 403 2428 403 3163 
Q 403 3881 828 4315 
Q 1253 4750 1959 4750 
Q 2769 4750 3195 4129 
Q 3622 3509 3622 2328 
Q 3622 1225 3098 567 
Q 2575 -91 1691 -91 
Q 1453 -91 1209 -44 
Q 966 3 703 97 
z
M 1959 2075 
Q 2384 2075 2632 2365 
Q 2881 2656 2881 3163 
Q 2881 3666 2632 3958 
Q 2384 4250 1959 4250 
Q 1534 4250 1286 3958 
Q 1038 3666 1038 3163 
Q 1038 2656 1286 2365 
Q 1534 2075 1959 2075 
z
" transform="scale(0.015625)"/>
       </defs>
       <use xlink:href="#DejaVuSans-39"/>
      </g>
     </g>
    </g>
    <g id="xtick_10">
     <g id="line2d_24">
      <path d="M 545.645455 576.72 
L 545.645455 77.76 
" clip-path="url(#pd684ce8b81)" style="fill: none; stroke: #b0b0b0; stroke-width: 0.8; stroke-linecap: square"/>
     </g>
     <g id="line2d_25">
      <g>
       <use xlink:href="#m832c7459ef" x="545.645455" y="576.72" style="stroke: #000000; stroke-width: 0.8"/>
      </g>
     </g>
     <g id="text_10">
      <!-- 10 -->
      <g transform="translate(539.282955 591.318438)scale(0.1 -0.1)">
       <defs>
        <path id="DejaVuSans-30" d="M 2034 4250 
Q 1547 4250 1301 3770 
Q 1056 3291 1056 2328 
Q 1056 1369 1301 889 
Q 1547 409 2034 409 
Q 2525 409 2770 889 
Q 3016 1369 3016 2328 
Q 3016 3291 2770 3770 
Q 2525 4250 2034 4250 
z
M 2034 4750 
Q 2819 4750 3233 4129 
Q 3647 3509 3647 2328 
Q 3647 1150 3233 529 
Q 2819 -91 2034 -91 
Q 1250 -91 836 529 
Q 422 1150 422 2328 
Q 422 3509 836 4129 
Q 1250 4750 2034 4750 
z
" transform="scale(0.015625)"/>
       </defs>
       <use xlink:href="#DejaVuSans-31"/>
       <use xlink:href="#DejaVuSans-30" x="63.623047"/>
      </g>
     </g>
    </g>
    <g id="xtick_11">
     <g id="line2d_26">
      <path d="M 589.609091 576.72 
L 589.609091 77.76 
" clip-path="url(#pd684ce8b81)" style="fill: none; stroke: #b0b0b0; stroke-width: 0.8; stroke-linecap: square"/>
     </g>
     <g id="line2d_27">
      <g>
       <use xlink:href="#m832c7459ef" x="589.609091" y="576.72" style="stroke: #000000; stroke-width: 0.8"/>
      </g>
     </g>
     <g id="text_11">
      <!-- 11 -->
      <g transform="translate(583.246591 591.318438)scale(0.1 -0.1)">
       <use xlink:href="#DejaVuSans-31"/>
       <use xlink:href="#DejaVuSans-31" x="63.623047"/>
      </g>
     </g>
    </g>
    <g id="xtick_12">
     <g id="line2d_28">
      <path d="M 633.572727 576.72 
L 633.572727 77.76 
" clip-path="url(#pd684ce8b81)" style="fill: none; stroke: #b0b0b0; stroke-width: 0.8; stroke-linecap: square"/>
     </g>
     <g id="line2d_29">
      <g>
       <use xlink:href="#m832c7459ef" x="633.572727" y="576.72" style="stroke: #000000; stroke-width: 0.8"/>
      </g>
     </g>
     <g id="text_12">
      <!-- 12 -->
      <g transform="translate(627.210227 591.318438)scale(0.1 -0.1)">
       <use xlink:href="#DejaVuSans-31"/>
       <use xlink:href="#DejaVuSans-32" x="63.623047"/>
      </g>
     </g>
    </g>
    <g id="xtick_13">
     <g id="line2d_30">
      <path d="M 677.536364 576.72 
L 677.536364 77.76 
" clip-path="url(#pd684ce8b81)" style="fill: none; stroke: #b0b0b0; stroke-width: 0.8; stroke-linecap: square"/>
     </g>
     <g id="line2d_31">
      <g>
       <use xlink:href="#m832c7459ef" x="677.536364" y="576.72" style="stroke: #000000; stroke-width: 0.8"/>
      </g>
     </g>
     <g id="text_13">
      <!-- 13 -->
      <g transform="translate(671.173864 591.318438)scale(0.1 -0.1)">
       <use xlink:href="#DejaVuSans-31"/>
       <use xlink:href="#DejaVuSans-33" x="63.623047"/>
      </g>
     </g>
    </g>
    <g id="xtick_14">
     <g id="line2d_32">
      <path d="M 721.5 576.72 
L 721.5 77.76 
" clip-path="url(#pd684ce8b81)" style="fill: none; stroke: #b0b0b0; stroke-width: 0.8; stroke-linecap: square"/>
     </g>
     <g id="line2d_33">
      <g>
       <use xlink:href="#m832c7459ef" x="721.5" y="576.72" style="stroke: #000000; stroke-width: 0.8"/>
      </g>
     </g>
     <g id="text_14">
      <!-- 14 -->
      <g transform="translate(715.1375 591.318438)scale(0.1 -0.1)">
       <use xlink:href="#DejaVuSans-31"/>
       <use xlink:href="#DejaVuSans-34" x="63.623047"/>
      </g>
     </g>
    </g>
    <g id="xtick_15">
     <g id="line2d_34">
      <path d="M 765.463636 576.72 
L 765.463636 77.76 
" clip-path="url(#pd684ce8b81)" style="fill: none; stroke: #b0b0b0; stroke-width: 0.8; stroke-linecap: square"/>
     </g>
     <g id="line2d_35">
      <g>
       <use xlink:href="#m832c7459ef" x="765.463636" y="576.72" style="stroke: #000000; stroke-width: 0.8"/>
      </g>
     </g>
     <g id="text_15">
      <!-- 15 -->
      <g transform="translate(759.101136 591.318438)scale(0.1 -0.1)">
       <use xlink:href="#DejaVuSans-31"/>
       <use xlink:href="#DejaVuSans-35" x="63.623047"/>
      </g>
     </g>
    </g>
    <g id="xtick_16">
     <g id="line2d_36">
      <path d="M 809.427273 576.72 
L 809.427273 77.76 
" clip-path="url(#pd684ce8b81)" style="fill: none; stroke: #b0b0b0; stroke-width: 0.8; stroke-linecap: square"/>
     </g>
     <g id="line2d_37">
      <g>
       <use xlink:href="#m832c7459ef" x="809.427273" y="576.72" style="stroke: #000000; stroke-width: 0.8"/>
      </g>
     </g>
     <g id="text_16">
      <!-- 16 -->
      <g transform="translate(803.064773 591.318438)scale(0.1 -0.1)">
       <use xlink:href="#DejaVuSans-31"/>
       <use xlink:href="#DejaVuSans-36" x="63.623047"/>
      </g>
     </g>
    </g>
    <g id="text_17">
     <!-- Threads -->
     <g transform="translate(459.614844 604.996562)scale(0.1 -0.1)">
      <defs>
       <path id="DejaVuSans-54" d="M -19 4666 
L 3928 4666 
L 3928 4134 
L 2272 4134 
L 2272 0 
L 1638 0 
L 1638 4134 
L -19 4134 
L -19 4666 
z
" transform="scale(0.015625)"/>
       <path id="DejaVuSans-68" d="M 3513 2113 
L 3513 0 
L 2938 0 
L 2938 2094 
Q 2938 2591 2744 2837 
Q 2550 3084 2163 3084 
Q 1697 3084 1428 2787 
Q 1159 2491 1159 1978 
L 1159 0 
L 581 0 
L 581 4863 
L 1159 4863 
L 1159 2956 
Q 1366 3272 1645 3428 
Q 1925 3584 2291 3584 
Q 2894 3584 3203 3211 
Q 3513 2838 3513 2113 
z
" transform="scale(0.015625)"/>
       <path id="DejaVuSans-72" d="M 2631 2963 
Q 2534 3019 2420 3045 
Q 2306 3072 2169 3072 
Q 1681 3072 1420 2755 
Q 1159 2438 1159 1844 
L 1159 0 
L 581 0 
L 581 3500 
L 1159 3500 
L 1159 2956 
Q 1341 3275 1631 3429 
Q 1922 3584 2338 3584 
Q 2397 3584 2469 3576 
Q 2541 3569 2628 3553 
L 2631 2963 
z
" transform="scale(0.015625)"/>
       <path id="DejaVuSans-65" d="M 3597 1894 
L 3597 1613 
L 953 1613 
Q 991 1019 1311 708 
Q 1631 397 2203 397 
Q 2534 397 2845 478 
Q 3156 559 3463 722 
L 3463 178 
Q 3153 47 2828 -22 
Q 2503 -91 2169 -91 
Q 1331 -91 842 396 
Q 353 884 353 1716 
Q 353 2575 817 3079 
Q 1281 3584 2069 3584 
Q 2775 3584 3186 3129 
Q 3597 2675 3597 1894 
z
M 3022 2063 
Q 3016 2534 2758 2815 
Q 2500 3097 2075 3097 
Q 1594 3097 1305 2825 
Q 1016 2553 972 2059 
L 3022 2063 
z
" transform="scale(0.015625)"/>
       <path id="DejaVuSans-61" d="M 2194 1759 
Q 1497 1759 1228 1600 
Q 959 1441 959 1056 
Q 959 750 1161 570 
Q 1363 391 1709 391 
Q 2188 391 2477 730 
Q 2766 1069 2766 1631 
L 2766 1759 
L 2194 1759 
z
M 3341 1997 
L 3341 0 
L 2766 0 
L 2766 531 
Q 2569 213 2275 61 
Q 1981 -91 1556 -91 
Q 1019 -91 701 211 
Q 384 513 384 1019 
Q 384 1609 779 1909 
Q 1175 2209 1959 2209 
L 2766 2209 
L 2766 2266 
Q 2766 2663 2505 2880 
Q 2244 3097 1772 3097 
Q 1472 3097 1187 3025 
Q 903 2953 641 2809 
L 641 3341 
Q 956 3463 1253 3523 
Q 1550 3584 1831 3584 
Q 2591 3584 2966 3190 
Q 3341 2797 3341 1997 
z
" transform="scale(0.015625)"/>
       <path id="DejaVuSans-64" d="M 2906 2969 
L 2906 4863 
L 3481 4863 
L 3481 0 
L 2906 0 
L 2906 525 
Q 2725 213 2448 61 
Q 2172 -91 1784 -91 
Q 1150 -91 751 415 
Q 353 922 353 1747 
Q 353 2572 751 3078 
Q 1150 3584 1784 3584 
Q 2172 3584 2448 3432 
Q 2725 3281 2906 2969 
z
M 947 1747 
Q 947 1113 1208 752 
Q 1469 391 1925 391 
Q 2381 391 2643 752 
Q 2906 1113 2906 1747 
Q 2906 2381 2643 2742 
Q 2381 3103 1925 3103 
Q 1469 3103 1208 2742 
Q 947 2381 947 1747 
z
" transform="scale(0.015625)"/>
       <path id="DejaVuSans-73" d="M 2834 3397 
L 2834 2853 
Q 2591 2978 2328 3040 
Q 2066 3103 1784 3103 
Q 1356 3103 1142 2972 
Q 928 2841 928 2578 
Q 928 2378 1081 2264 
Q 1234 2150 1697 2047 
L 1894 2003 
Q 2506 1872 2764 1633 
Q 3022 1394 3022 966 
Q 3022 478 2636 193 
Q 2250 -91 1575 -91 
Q 1294 -91 989 -36 
Q 684 19 347 128 
L 347 722 
Q 666 556 975 473 
Q 1284 391 1588 391 
Q 1994 391 2212 530 
Q 2431 669 2431 922 
Q 2431 1156 2273 1281 
Q 2116 1406 1581 1522 
L 1381 1569 
Q 847 1681 609 1914 
Q 372 2147 372 2553 
Q 372 3047 722 3315 
Q 1072 3584 1716 3584 
Q 2034 3584 2315 3537 
Q 2597 3491 2834 3397 
z
" transform="scale(0.015625)"/>
      </defs>
      <use xlink:href="#DejaVuSans-54"/>
      <use xlink:href="#DejaVuSans-68" x="61.083984"/>
      <use xlink:href="#DejaVuSans-72" x="124.462891"/>
      <use xlink:href="#DejaVuSans-65" x="163.326172"/>
      <use xlink:href="#DejaVuSans-61" x="224.849609"/>
      <use xlink:href="#DejaVuSans-64" x="286.128906"/>
      <use xlink:href="#DejaVuSans-73" x="349.605469"/>
     </g>
    </g>
   </g>
   <g id="matplotlib.axis_2">
    <g id="ytick_1">
     <g id="line2d_38">
      <path d="M 117 493.813872 
L 842.4 493.813872 
" clip-path="url(#pd684ce8b81)" style="fill: none; stroke: #b0b0b0; stroke-width: 0.8; stroke-linecap: square"/>
     </g>
     <g id="line2d_39">
      <defs>
       <path id="mc3ec10d5a4" d="M 0 0 
L -3.5 0 
" style="stroke: #000000; stroke-width: 0.8"/>
      </defs>
      <g>
       <use xlink:href="#mc3ec10d5a4" x="117" y="493.813872" style="stroke: #000000; stroke-width: 0.8"/>
      </g>
     </g>
     <g id="text_18">
      <!-- 0.48 -->
      <g transform="translate(87.734375 497.61309)scale(0.1 -0.1)">
       <defs>
        <path id="DejaVuSans-2e" d="M 684 794 
L 1344 794 
L 1344 0 
L 684 0 
L 684 794 
z
" transform="scale(0.015625)"/>
       </defs>
       <use xlink:href="#DejaVuSans-30"/>
       <use xlink:href="#DejaVuSans-2e" x="63.623047"/>
       <use xlink:href="#DejaVuSans-34" x="95.410156"/>
       <use xlink:href="#DejaVuSans-38" x="159.033203"/>
      </g>
     </g>
    </g>
    <g id="ytick_2">
     <g id="line2d_40">
      <path d="M 117 407.945345 
L 842.4 407.945345 
" clip-path="url(#pd684ce8b81)" style="fill: none; stroke: #b0b0b0; stroke-width: 0.8; stroke-linecap: square"/>
     </g>
     <g id="line2d_41">
      <g>
       <use xlink:href="#mc3ec10d5a4" x="117" y="407.945345" style="stroke: #000000; stroke-width: 0.8"/>
      </g>
     </g>
     <g id="text_19">
      <!-- 0.50 -->
      <g transform="translate(87.734375 411.744564)scale(0.1 -0.1)">
       <use xlink:href="#DejaVuSans-30"/>
       <use xlink:href="#DejaVuSans-2e" x="63.623047"/>
       <use xlink:href="#DejaVuSans-35" x="95.410156"/>
       <use xlink:href="#DejaVuSans-30" x="159.033203"/>
      </g>
     </g>
    </g>
    <g id="ytick_3">
     <g id="line2d_42">
      <path d="M 117 322.076818 
L 842.4 322.076818 
" clip-path="url(#pd684ce8b81)" style="fill: none; stroke: #b0b0b0; stroke-width: 0.8; stroke-linecap: square"/>
     </g>
     <g id="line2d_43">
      <g>
       <use xlink:href="#mc3ec10d5a4" x="117" y="322.076818" style="stroke: #000000; stroke-width: 0.8"/>
      </g>
     </g>
     <g id="text_20">
      <!-- 0.52 -->
      <g transform="translate(87.734375 325.876037)scale(0.1 -0.1)">
       <use xlink:href="#DejaVuSans-30"/>
       <use xlink:href="#DejaVuSans-2e" x="63.623047"/>
       <use xlink:href="#DejaVuSans-35" x="95.410156"/>
       <use xlink:href="#DejaVuSans-32" x="159.033203"/>
      </g>
     </g>
    </g>
    <g id="ytick_4">
     <g id="line2d_44">
      <path d="M 117 236.208291 
L 842.4 236.208291 
" clip-path="url(#pd684ce8b81)" style="fill: none; stroke: #b0b0b0; stroke-width: 0.8; stroke-linecap: square"/>
     </g>
     <g id="line2d_45">
      <g>
       <use xlink:href="#mc3ec10d5a4" x="117" y="236.208291" style="stroke: #000000; stroke-width: 0.8"/>
      </g>
     </g>
     <g id="text_21">
      <!-- 0.54 -->
      <g transform="translate(87.734375 240.00751)scale(0.1 -0.1)">
       <use xlink:href="#DejaVuSans-30"/>
       <use xlink:href="#DejaVuSans-2e" x="63.623047"/>
       <use xlink:href="#DejaVuSans-35" x="95.410156"/>
       <use xlink:href="#DejaVuSans-34" x="159.033203"/>
      </g>
     </g>
    </g>
    <g id="ytick_5">
     <g id="line2d_46">
      <path d="M 117 150.339764 
L 842.4 150.339764 
" clip-path="url(#pd684ce8b81)" style="fill: none; stroke: #b0b0b0; stroke-width: 0.8; stroke-linecap: square"/>
     </g>
     <g id="line2d_47">
      <g>
       <use xlink:href="#mc3ec10d5a4" x="117" y="150.339764" style="stroke: #000000; stroke-width: 0.8"/>
      </g>
     </g>
     <g id="text_22">
      <!-- 0.56 -->
      <g transform="translate(87.734375 154.138983)scale(0.1 -0.1)">
       <use xlink:href="#DejaVuSans-30"/>
       <use xlink:href="#DejaVuSans-2e" x="63.623047"/>
       <use xlink:href="#DejaVuSans-35" x="95.410156"/>
       <use xlink:href="#DejaVuSans-36" x="159.033203"/>
      </g>
     </g>
    </g>
    <g id="text_23">
     <!-- Time (s) -->
     <g transform="translate(81.654687 347.568906)rotate(-90)scale(0.1 -0.1)">
      <defs>
       <path id="DejaVuSans-69" d="M 603 3500 
L 1178 3500 
L 1178 0 
L 603 0 
L 603 3500 
z
M 603 4863 
L 1178 4863 
L 1178 4134 
L 603 4134 
L 603 4863 
z
" transform="scale(0.015625)"/>
       <path id="DejaVuSans-6d" d="M 3328 2828 
Q 3544 3216 3844 3400 
Q 4144 3584 4550 3584 
Q 5097 3584 5394 3201 
Q 5691 2819 5691 2113 
L 5691 0 
L 5113 0 
L 5113 2094 
Q 5113 2597 4934 2840 
Q 4756 3084 4391 3084 
Q 3944 3084 3684 2787 
Q 3425 2491 3425 1978 
L 3425 0 
L 2847 0 
L 2847 2094 
Q 2847 2600 2669 2842 
Q 2491 3084 2119 3084 
Q 1678 3084 1418 2786 
Q 1159 2488 1159 1978 
L 1159 0 
L 581 0 
L 581 3500 
L 1159 3500 
L 1159 2956 
Q 1356 3278 1631 3431 
Q 1906 3584 2284 3584 
Q 2666 3584 2933 3390 
Q 3200 3197 3328 2828 
z
" transform="scale(0.015625)"/>
       <path id="DejaVuSans-20" transform="scale(0.015625)"/>
       <path id="DejaVuSans-28" d="M 1984 4856 
Q 1566 4138 1362 3434 
Q 1159 2731 1159 2009 
Q 1159 1288 1364 580 
Q 1569 -128 1984 -844 
L 1484 -844 
Q 1016 -109 783 600 
Q 550 1309 550 2009 
Q 550 2706 781 3412 
Q 1013 4119 1484 4856 
L 1984 4856 
z
" transform="scale(0.015625)"/>
       <path id="DejaVuSans-29" d="M 513 4856 
L 1013 4856 
Q 1481 4119 1714 3412 
Q 1947 2706 1947 2009 
Q 1947 1309 1714 600 
Q 1481 -109 1013 -844 
L 513 -844 
Q 928 -128 1133 580 
Q 1338 1288 1338 2009 
Q 1338 2731 1133 3434 
Q 928 4138 513 4856 
z
" transform="scale(0.015625)"/>
      </defs>
      <use xlink:href="#DejaVuSans-54"/>
      <use xlink:href="#DejaVuSans-69" x="57.958984"/>
      <use xlink:href="#DejaVuSans-6d" x="85.742188"/>
      <use xlink:href="#DejaVuSans-65" x="183.154297"/>
      <use xlink:href="#DejaVuSans-20" x="244.677734"/>
      <use xlink:href="#DejaVuSans-28" x="276.464844"/>
      <use xlink:href="#DejaVuSans-73" x="315.478516"/>
      <use xlink:href="#DejaVuSans-29" x="367.578125"/>
     </g>
    </g>
   </g>
   <g id="PathCollection_1">
    <defs>
     <path id="mf37ec2265a" d="M 0 1.118034 
C 0.296506 1.118034 0.580908 1.000231 0.790569 0.790569 
C 1.000231 0.580908 1.118034 0.296506 1.118034 0 
C 1.118034 -0.296506 1.000231 -0.580908 0.790569 -0.790569 
C 0.580908 -1.000231 0.296506 -1.118034 0 -1.118034 
C -0.296506 -1.118034 -0.580908 -1.000231 -0.790569 -0.790569 
C -1.000231 -0.580908 -1.118034 -0.296506 -1.118034 0 
C -1.118034 0.296506 -1.000231 0.580908 -0.790569 0.790569 
C -0.580908 1.000231 -0.296506 1.118034 0 1.118034 
z
" style="stroke: #1f77b4"/>
    </defs>
    <g clip-path="url(#pd684ce8b81)">
     <use xlink:href="#mf37ec2265a" x="149.972727" y="459.175324" style="fill: #1f77b4; stroke: #1f77b4"/>
     <use xlink:href="#mf37ec2265a" x="193.936364" y="464.017064" style="fill: #1f77b4; stroke: #1f77b4"/>
     <use xlink:href="#mf37ec2265a" x="237.9" y="476.698832" style="fill: #1f77b4; stroke: #1f77b4"/>
     <use xlink:href="#mf37ec2265a" x="281.863636" y="430.424244" style="fill: #1f77b4; stroke: #1f77b4"/>
     <use xlink:href="#mf37ec2265a" x="325.827273" y="267.898822" style="fill: #1f77b4; stroke: #1f77b4"/>
     <use xlink:href="#mf37ec2265a" x="369.790909" y="302.262106" style="fill: #1f77b4; stroke: #1f77b4"/>
     <use xlink:href="#mf37ec2265a" x="413.754545" y="402.88549" style="fill: #1f77b4; stroke: #1f77b4"/>
     <use xlink:href="#mf37ec2265a" x="457.718182" y="505.126247" style="fill: #1f77b4; stroke: #1f77b4"/>
     <use xlink:href="#mf37ec2265a" x="501.681818" y="472.928555" style="fill: #1f77b4; stroke: #1f77b4"/>
     <use xlink:href="#mf37ec2265a" x="545.645455" y="247.504798" style="fill: #1f77b4; stroke: #1f77b4"/>
     <use xlink:href="#mf37ec2265a" x="589.609091" y="496.868323" style="fill: #1f77b4; stroke: #1f77b4"/>
     <use xlink:href="#mf37ec2265a" x="633.572727" y="380.902061" style="fill: #1f77b4; stroke: #1f77b4"/>
     <use xlink:href="#mf37ec2265a" x="677.536364" y="303.372223" style="fill: #1f77b4; stroke: #1f77b4"/>
     <use xlink:href="#mf37ec2265a" x="721.5" y="486.575979" style="fill: #1f77b4; stroke: #1f77b4"/>
     <use xlink:href="#mf37ec2265a" x="765.463636" y="452.919681" style="fill: #1f77b4; stroke: #1f77b4"/>
     <use xlink:href="#mf37ec2265a" x="809.427273" y="482.239035" style="fill: #1f77b4; stroke: #1f77b4"/>
    </g>
   </g>
   <g id="PathCollection_2">
    <defs>
     <path id="m11f72d560b" d="M 0 1.118034 
C 0.296506 1.118034 0.580908 1.000231 0.790569 0.790569 
C 1.000231 0.580908 1.118034 0.296506 1.118034 0 
C 1.118034 -0.296506 1.000231 -0.580908 0.790569 -0.790569 
C 0.580908 -1.000231 0.296506 -1.118034 0 -1.118034 
C -0.296506 -1.118034 -0.580908 -1.000231 -0.790569 -0.790569 
C -1.000231 -0.580908 -1.118034 -0.296506 -1.118034 0 
C -1.118034 0.296506 -1.000231 0.580908 -0.790569 0.790569 
C -0.580908 1.000231 -0.296506 1.118034 0 1.118034 
z
" style="stroke: #ff7f0e"/>
    </defs>
    <g clip-path="url(#pd684ce8b81)">
     <use xlink:href="#m11f72d560b" x="149.972727" y="528.483955" style="fill: #ff7f0e; stroke: #ff7f0e"/>
     <use xlink:href="#m11f72d560b" x="193.936364" y="449.478092" style="fill: #ff7f0e; stroke: #ff7f0e"/>
     <use xlink:href="#m11f72d560b" x="237.9" y="455.745846" style="fill: #ff7f0e; stroke: #ff7f0e"/>
     <use xlink:href="#m11f72d560b" x="281.863636" y="340.004925" style="fill: #ff7f0e; stroke: #ff7f0e"/>
     <use xlink:href="#m11f72d560b" x="325.827273" y="448.887853" style="fill: #ff7f0e; stroke: #ff7f0e"/>
     <use xlink:href="#m11f72d560b" x="369.790909" y="453.518185" style="fill: #ff7f0e; stroke: #ff7f0e"/>
     <use xlink:href="#m11f72d560b" x="413.754545" y="412.23598" style="fill: #ff7f0e; stroke: #ff7f0e"/>
     <use xlink:href="#m11f72d560b" x="457.718182" y="474.782281" style="fill: #ff7f0e; stroke: #ff7f0e"/>
     <use xlink:href="#m11f72d560b" x="501.681818" y="445.224256" style="fill: #ff7f0e; stroke: #ff7f0e"/>
     <use xlink:href="#m11f72d560b" x="545.645455" y="401.505969" style="fill: #ff7f0e; stroke: #ff7f0e"/>
     <use xlink:href="#m11f72d560b" x="589.609091" y="348.499341" style="fill: #ff7f0e; stroke: #ff7f0e"/>
     <use xlink:href="#m11f72d560b" x="633.572727" y="517.032468" style="fill: #ff7f0e; stroke: #ff7f0e"/>
     <use xlink:href="#m11f72d560b" x="677.536364" y="456.420288" style="fill: #ff7f0e; stroke: #ff7f0e"/>
     <use xlink:href="#m11f72d560b" x="721.5" y="100.44" style="fill: #ff7f0e; stroke: #ff7f0e"/>
     <use xlink:href="#m11f72d560b" x="765.463636" y="509.182904" style="fill: #ff7f0e; stroke: #ff7f0e"/>
     <use xlink:href="#m11f72d560b" x="809.427273" y="490.159088" style="fill: #ff7f0e; stroke: #ff7f0e"/>
    </g>
   </g>
   <g id="PathCollection_3">
    <defs>
     <path id="m16cc1a276e" d="M 0 1.118034 
C 0.296506 1.118034 0.580908 1.000231 0.790569 0.790569 
C 1.000231 0.580908 1.118034 0.296506 1.118034 0 
C 1.118034 -0.296506 1.000231 -0.580908 0.790569 -0.790569 
C 0.580908 -1.000231 0.296506 -1.118034 0 -1.118034 
C -0.296506 -1.118034 -0.580908 -1.000231 -0.790569 -0.790569 
C -1.000231 -0.580908 -1.118034 -0.296506 -1.118034 0 
C -1.118034 0.296506 -1.000231 0.580908 -0.790569 0.790569 
C -0.580908 1.000231 -0.296506 1.118034 0 1.118034 
z
" style="stroke: #2ca02c"/>
    </defs>
    <g clip-path="url(#pd684ce8b81)">
     <use xlink:href="#m16cc1a276e" x="149.972727" y="554.04" style="fill: #2ca02c; stroke: #2ca02c"/>
     <use xlink:href="#m16cc1a276e" x="193.936364" y="496.265603" style="fill: #2ca02c; stroke: #2ca02c"/>
     <use xlink:href="#m16cc1a276e" x="237.9" y="507.382473" style="fill: #2ca02c; stroke: #2ca02c"/>
     <use xlink:href="#m16cc1a276e" x="281.863636" y="457.685449" style="fill: #2ca02c; stroke: #2ca02c"/>
     <use xlink:href="#m16cc1a276e" x="325.827273" y="454.466401" style="fill: #2ca02c; stroke: #2ca02c"/>
     <use xlink:href="#m16cc1a276e" x="369.790909" y="464.502079" style="fill: #2ca02c; stroke: #2ca02c"/>
     <use xlink:href="#m16cc1a276e" x="413.754545" y="503.427815" style="fill: #2ca02c; stroke: #2ca02c"/>
     <use xlink:href="#m16cc1a276e" x="457.718182" y="506.421265" style="fill: #2ca02c; stroke: #2ca02c"/>
     <use xlink:href="#m16cc1a276e" x="501.681818" y="507.134738" style="fill: #2ca02c; stroke: #2ca02c"/>
     <use xlink:href="#m16cc1a276e" x="545.645455" y="504.614492" style="fill: #2ca02c; stroke: #2ca02c"/>
     <use xlink:href="#m16cc1a276e" x="589.609091" y="428.574245" style="fill: #2ca02c; stroke: #2ca02c"/>
     <use xlink:href="#m16cc1a276e" x="633.572727" y="192.128442" style="fill: #2ca02c; stroke: #2ca02c"/>
     <use xlink:href="#m16cc1a276e" x="677.536364" y="334.697375" style="fill: #2ca02c; stroke: #2ca02c"/>
     <use xlink:href="#m16cc1a276e" x="721.5" y="472.893259" style="fill: #2ca02c; stroke: #2ca02c"/>
     <use xlink:href="#m16cc1a276e" x="765.463636" y="400.574936" style="fill: #2ca02c; stroke: #2ca02c"/>
     <use xlink:href="#m16cc1a276e" x="809.427273" y="468.045534" style="fill: #2ca02c; stroke: #2ca02c"/>
    </g>
   </g>
   <g id="PathCollection_4">
    <defs>
     <path id="m1406687d0c" d="M 0 1.118034 
C 0.296506 1.118034 0.580908 1.000231 0.790569 0.790569 
C 1.000231 0.580908 1.118034 0.296506 1.118034 0 
C 1.118034 -0.296506 1.000231 -0.580908 0.790569 -0.790569 
C 0.580908 -1.000231 0.296506 -1.118034 0 -1.118034 
C -0.296506 -1.118034 -0.580908 -1.000231 -0.790569 -0.790569 
C -1.000231 -0.580908 -1.118034 -0.296506 -1.118034 0 
C -1.118034 0.296506 -1.000231 0.580908 -0.790569 0.790569 
C -0.580908 1.000231 -0.296506 1.118034 0 1.118034 
z
" style="stroke: #d62728"/>
    </defs>
    <g clip-path="url(#pd684ce8b81)">
     <use xlink:href="#m1406687d0c" x="149.972727" y="525.611623" style="fill: #d62728; stroke: #d62728"/>
     <use xlink:href="#m1406687d0c" x="193.936364" y="537.403754" style="fill: #d62728; stroke: #d62728"/>
     <use xlink:href="#m1406687d0c" x="237.9" y="497.008293" style="fill: #d62728; stroke: #d62728"/>
     <use xlink:href="#m1406687d0c" x="281.863636" y="486.508083" style="fill: #d62728; stroke: #d62728"/>
     <use xlink:href="#m1406687d0c" x="325.827273" y="519.885858" style="fill: #d62728; stroke: #d62728"/>
     <use xlink:href="#m1406687d0c" x="369.790909" y="504.559081" style="fill: #d62728; stroke: #d62728"/>
     <use xlink:href="#m1406687d0c" x="413.754545" y="382.504819" style="fill: #d62728; stroke: #d62728"/>
     <use xlink:href="#m1406687d0c" x="457.718182" y="410.46863" style="fill: #d62728; stroke: #d62728"/>
     <use xlink:href="#m1406687d0c" x="501.681818" y="500.227336" style="fill: #d62728; stroke: #d62728"/>
     <use xlink:href="#m1406687d0c" x="545.645455" y="403.956056" style="fill: #d62728; stroke: #d62728"/>
     <use xlink:href="#m1406687d0c" x="589.609091" y="520.238292" style="fill: #d62728; stroke: #d62728"/>
     <use xlink:href="#m1406687d0c" x="633.572727" y="500.650063" style="fill: #d62728; stroke: #d62728"/>
     <use xlink:href="#m1406687d0c" x="677.536364" y="481.627325" style="fill: #d62728; stroke: #d62728"/>
     <use xlink:href="#m1406687d0c" x="721.5" y="514.304009" style="fill: #d62728; stroke: #d62728"/>
     <use xlink:href="#m1406687d0c" x="765.463636" y="290.055135" style="fill: #d62728; stroke: #d62728"/>
     <use xlink:href="#m1406687d0c" x="809.427273" y="408.767334" style="fill: #d62728; stroke: #d62728"/>
    </g>
   </g>
   <g id="PathCollection_5">
    <defs>
     <path id="m56d5ba75b2" d="M 0 1.118034 
C 0.296506 1.118034 0.580908 1.000231 0.790569 0.790569 
C 1.000231 0.580908 1.118034 0.296506 1.118034 0 
C 1.118034 -0.296506 1.000231 -0.580908 0.790569 -0.790569 
C 0.580908 -1.000231 0.296506 -1.118034 0 -1.118034 
C -0.296506 -1.118034 -0.580908 -1.000231 -0.790569 -0.790569 
C -1.000231 -0.580908 -1.118034 -0.296506 -1.118034 0 
C -1.118034 0.296506 -1.000231 0.580908 -0.790569 0.790569 
C -0.580908 1.000231 -0.296506 1.118034 0 1.118034 
z
" style="stroke: #9467bd"/>
    </defs>
    <g clip-path="url(#pd684ce8b81)">
     <use xlink:href="#m56d5ba75b2" x="149.972727" y="525.869477" style="fill: #9467bd; stroke: #9467bd"/>
     <use xlink:href="#m56d5ba75b2" x="193.936364" y="496.536664" style="fill: #9467bd; stroke: #9467bd"/>
     <use xlink:href="#m56d5ba75b2" x="237.9" y="457.650496" style="fill: #9467bd; stroke: #9467bd"/>
     <use xlink:href="#m56d5ba75b2" x="281.863636" y="482.113877" style="fill: #9467bd; stroke: #9467bd"/>
     <use xlink:href="#m56d5ba75b2" x="325.827273" y="478.932371" style="fill: #9467bd; stroke: #9467bd"/>
     <use xlink:href="#m56d5ba75b2" x="369.790909" y="499.782529" style="fill: #9467bd; stroke: #9467bd"/>
     <use xlink:href="#m56d5ba75b2" x="413.754545" y="448.598837" style="fill: #9467bd; stroke: #9467bd"/>
     <use xlink:href="#m56d5ba75b2" x="457.718182" y="507.465486" style="fill: #9467bd; stroke: #9467bd"/>
     <use xlink:href="#m56d5ba75b2" x="501.681818" y="476.443858" style="fill: #9467bd; stroke: #9467bd"/>
     <use xlink:href="#m56d5ba75b2" x="545.645455" y="525.577855" style="fill: #9467bd; stroke: #9467bd"/>
     <use xlink:href="#m56d5ba75b2" x="589.609091" y="496.781445" style="fill: #9467bd; stroke: #9467bd"/>
     <use xlink:href="#m56d5ba75b2" x="633.572727" y="341.7213" style="fill: #9467bd; stroke: #9467bd"/>
     <use xlink:href="#m56d5ba75b2" x="677.536364" y="190.524951" style="fill: #9467bd; stroke: #9467bd"/>
     <use xlink:href="#m56d5ba75b2" x="721.5" y="362.139728" style="fill: #9467bd; stroke: #9467bd"/>
     <use xlink:href="#m56d5ba75b2" x="765.463636" y="478.317346" style="fill: #9467bd; stroke: #9467bd"/>
     <use xlink:href="#m56d5ba75b2" x="809.427273" y="483.807226" style="fill: #9467bd; stroke: #9467bd"/>
    </g>
   </g>
   <g id="patch_3">
    <path d="M 117 576.72 
L 117 77.76 
" style="fill: none; stroke: #000000; stroke-width: 0.8; stroke-linejoin: miter; stroke-linecap: square"/>
   </g>
   <g id="patch_4">
    <path d="M 842.4 576.72 
L 842.4 77.76 
" style="fill: none; stroke: #000000; stroke-width: 0.8; stroke-linejoin: miter; stroke-linecap: square"/>
   </g>
   <g id="patch_5">
    <path d="M 117 576.72 
L 842.4 576.72 
" style="fill: none; stroke: #000000; stroke-width: 0.8; stroke-linejoin: miter; stroke-linecap: square"/>
   </g>
   <g id="patch_6">
    <path d="M 117 77.76 
L 842.4 77.76 
" style="fill: none; stroke: #000000; stroke-width: 0.8; stroke-linejoin: miter; stroke-linecap: square"/>
   </g>
   <g id="line2d_48">
    <path d="M 149.972727 518.636076 
L 193.936364 488.740235 
L 237.9 478.897188 
L 281.863636 439.347316 
L 325.827273 434.014261 
L 369.790909 444.924796 
L 413.754545 429.930588 
L 457.718182 480.852782 
L 501.681818 480.391749 
L 545.645455 416.631834 
L 589.609091 458.192329 
L 633.572727 386.486867 
L 677.536364 353.328432 
L 721.5 387.270595 
L 765.463636 426.21 
L 809.427273 466.603643 
" clip-path="url(#pd684ce8b81)" style="fill: none; stroke: #ff0000; stroke-width: 5; stroke-linecap: square"/>
   </g>
   <g id="text_24">
    <!-- Intel(R) Core(TM) i7-6700 CPU @ 3.40GHz -->
    <g transform="translate(248.949219 71.76)scale(0.22 -0.22)">
     <defs>
      <path id="DejaVuSans-49" d="M 628 4666 
L 1259 4666 
L 1259 0 
L 628 0 
L 628 4666 
z
" transform="scale(0.015625)"/>
      <path id="DejaVuSans-6e" d="M 3513 2113 
L 3513 0 
L 2938 0 
L 2938 2094 
Q 2938 2591 2744 2837 
Q 2550 3084 2163 3084 
Q 1697 3084 1428 2787 
Q 1159 2491 1159 1978 
L 1159 0 
L 581 0 
L 581 3500 
L 1159 3500 
L 1159 2956 
Q 1366 3272 1645 3428 
Q 1925 3584 2291 3584 
Q 2894 3584 3203 3211 
Q 3513 2838 3513 2113 
z
" transform="scale(0.015625)"/>
      <path id="DejaVuSans-74" d="M 1172 4494 
L 1172 3500 
L 2356 3500 
L 2356 3053 
L 1172 3053 
L 1172 1153 
Q 1172 725 1289 603 
Q 1406 481 1766 481 
L 2356 481 
L 2356 0 
L 1766 0 
Q 1100 0 847 248 
Q 594 497 594 1153 
L 594 3053 
L 172 3053 
L 172 3500 
L 594 3500 
L 594 4494 
L 1172 4494 
z
" transform="scale(0.015625)"/>
      <path id="DejaVuSans-6c" d="M 603 4863 
L 1178 4863 
L 1178 0 
L 603 0 
L 603 4863 
z
" transform="scale(0.015625)"/>
      <path id="DejaVuSans-52" d="M 2841 2188 
Q 3044 2119 3236 1894 
Q 3428 1669 3622 1275 
L 4263 0 
L 3584 0 
L 2988 1197 
Q 2756 1666 2539 1819 
Q 2322 1972 1947 1972 
L 1259 1972 
L 1259 0 
L 628 0 
L 628 4666 
L 2053 4666 
Q 2853 4666 3247 4331 
Q 3641 3997 3641 3322 
Q 3641 2881 3436 2590 
Q 3231 2300 2841 2188 
z
M 1259 4147 
L 1259 2491 
L 2053 2491 
Q 2509 2491 2742 2702 
Q 2975 2913 2975 3322 
Q 2975 3731 2742 3939 
Q 2509 4147 2053 4147 
L 1259 4147 
z
" transform="scale(0.015625)"/>
      <path id="DejaVuSans-43" d="M 4122 4306 
L 4122 3641 
Q 3803 3938 3442 4084 
Q 3081 4231 2675 4231 
Q 1875 4231 1450 3742 
Q 1025 3253 1025 2328 
Q 1025 1406 1450 917 
Q 1875 428 2675 428 
Q 3081 428 3442 575 
Q 3803 722 4122 1019 
L 4122 359 
Q 3791 134 3420 21 
Q 3050 -91 2638 -91 
Q 1578 -91 968 557 
Q 359 1206 359 2328 
Q 359 3453 968 4101 
Q 1578 4750 2638 4750 
Q 3056 4750 3426 4639 
Q 3797 4528 4122 4306 
z
" transform="scale(0.015625)"/>
      <path id="DejaVuSans-6f" d="M 1959 3097 
Q 1497 3097 1228 2736 
Q 959 2375 959 1747 
Q 959 1119 1226 758 
Q 1494 397 1959 397 
Q 2419 397 2687 759 
Q 2956 1122 2956 1747 
Q 2956 2369 2687 2733 
Q 2419 3097 1959 3097 
z
M 1959 3584 
Q 2709 3584 3137 3096 
Q 3566 2609 3566 1747 
Q 3566 888 3137 398 
Q 2709 -91 1959 -91 
Q 1206 -91 779 398 
Q 353 888 353 1747 
Q 353 2609 779 3096 
Q 1206 3584 1959 3584 
z
" transform="scale(0.015625)"/>
      <path id="DejaVuSans-4d" d="M 628 4666 
L 1569 4666 
L 2759 1491 
L 3956 4666 
L 4897 4666 
L 4897 0 
L 4281 0 
L 4281 4097 
L 3078 897 
L 2444 897 
L 1241 4097 
L 1241 0 
L 628 0 
L 628 4666 
z
" transform="scale(0.015625)"/>
      <path id="DejaVuSans-2d" d="M 313 2009 
L 1997 2009 
L 1997 1497 
L 313 1497 
L 313 2009 
z
" transform="scale(0.015625)"/>
      <path id="DejaVuSans-50" d="M 1259 4147 
L 1259 2394 
L 2053 2394 
Q 2494 2394 2734 2622 
Q 2975 2850 2975 3272 
Q 2975 3691 2734 3919 
Q 2494 4147 2053 4147 
L 1259 4147 
z
M 628 4666 
L 2053 4666 
Q 2838 4666 3239 4311 
Q 3641 3956 3641 3272 
Q 3641 2581 3239 2228 
Q 2838 1875 2053 1875 
L 1259 1875 
L 1259 0 
L 628 0 
L 628 4666 
z
" transform="scale(0.015625)"/>
      <path id="DejaVuSans-55" d="M 556 4666 
L 1191 4666 
L 1191 1831 
Q 1191 1081 1462 751 
Q 1734 422 2344 422 
Q 2950 422 3222 751 
Q 3494 1081 3494 1831 
L 3494 4666 
L 4128 4666 
L 4128 1753 
Q 4128 841 3676 375 
Q 3225 -91 2344 -91 
Q 1459 -91 1007 375 
Q 556 841 556 1753 
L 556 4666 
z
" transform="scale(0.015625)"/>
      <path id="DejaVuSans-40" d="M 2381 1678 
Q 2381 1231 2603 976 
Q 2825 722 3213 722 
Q 3597 722 3817 978 
Q 4038 1234 4038 1678 
Q 4038 2116 3813 2373 
Q 3588 2631 3206 2631 
Q 2828 2631 2604 2375 
Q 2381 2119 2381 1678 
z
M 4084 744 
Q 3897 503 3655 389 
Q 3413 275 3091 275 
Q 2553 275 2217 664 
Q 1881 1053 1881 1678 
Q 1881 2303 2218 2693 
Q 2556 3084 3091 3084 
Q 3413 3084 3656 2967 
Q 3900 2850 4084 2613 
L 4084 3022 
L 4531 3022 
L 4531 722 
Q 4988 791 5245 1139 
Q 5503 1488 5503 2041 
Q 5503 2375 5404 2669 
Q 5306 2963 5106 3213 
Q 4781 3622 4314 3839 
Q 3847 4056 3297 4056 
Q 2913 4056 2559 3954 
Q 2206 3853 1906 3653 
Q 1416 3334 1139 2817 
Q 863 2300 863 1697 
Q 863 1200 1042 765 
Q 1222 331 1563 0 
Q 1891 -325 2322 -495 
Q 2753 -666 3244 -666 
Q 3647 -666 4036 -530 
Q 4425 -394 4750 -141 
L 5031 -488 
Q 4641 -791 4180 -952 
Q 3719 -1113 3244 -1113 
Q 2666 -1113 2153 -908 
Q 1641 -703 1241 -313 
Q 841 78 631 592 
Q 422 1106 422 1697 
Q 422 2266 634 2781 
Q 847 3297 1241 3688 
Q 1644 4084 2172 4295 
Q 2700 4506 3291 4506 
Q 3953 4506 4520 4234 
Q 5088 3963 5472 3463 
Q 5706 3156 5829 2797 
Q 5953 2438 5953 2053 
Q 5953 1231 5456 756 
Q 4959 281 4084 263 
L 4084 744 
z
" transform="scale(0.015625)"/>
      <path id="DejaVuSans-47" d="M 3809 666 
L 3809 1919 
L 2778 1919 
L 2778 2438 
L 4434 2438 
L 4434 434 
Q 4069 175 3628 42 
Q 3188 -91 2688 -91 
Q 1594 -91 976 548 
Q 359 1188 359 2328 
Q 359 3472 976 4111 
Q 1594 4750 2688 4750 
Q 3144 4750 3555 4637 
Q 3966 4525 4313 4306 
L 4313 3634 
Q 3963 3931 3569 4081 
Q 3175 4231 2741 4231 
Q 1884 4231 1454 3753 
Q 1025 3275 1025 2328 
Q 1025 1384 1454 906 
Q 1884 428 2741 428 
Q 3075 428 3337 486 
Q 3600 544 3809 666 
z
" transform="scale(0.015625)"/>
      <path id="DejaVuSans-48" d="M 628 4666 
L 1259 4666 
L 1259 2753 
L 3553 2753 
L 3553 4666 
L 4184 4666 
L 4184 0 
L 3553 0 
L 3553 2222 
L 1259 2222 
L 1259 0 
L 628 0 
L 628 4666 
z
" transform="scale(0.015625)"/>
      <path id="DejaVuSans-7a" d="M 353 3500 
L 3084 3500 
L 3084 2975 
L 922 459 
L 3084 459 
L 3084 0 
L 275 0 
L 275 525 
L 2438 3041 
L 353 3041 
L 353 3500 
z
" transform="scale(0.015625)"/>
     </defs>
     <use xlink:href="#DejaVuSans-49"/>
     <use xlink:href="#DejaVuSans-6e" x="29.492188"/>
     <use xlink:href="#DejaVuSans-74" x="92.871094"/>
     <use xlink:href="#DejaVuSans-65" x="132.080078"/>
     <use xlink:href="#DejaVuSans-6c" x="193.603516"/>
     <use xlink:href="#DejaVuSans-28" x="221.386719"/>
     <use xlink:href="#DejaVuSans-52" x="260.400391"/>
     <use xlink:href="#DejaVuSans-29" x="329.882812"/>
     <use xlink:href="#DejaVuSans-20" x="368.896484"/>
     <use xlink:href="#DejaVuSans-43" x="400.683594"/>
     <use xlink:href="#DejaVuSans-6f" x="470.507812"/>
     <use xlink:href="#DejaVuSans-72" x="531.689453"/>
     <use xlink:href="#DejaVuSans-65" x="570.552734"/>
     <use xlink:href="#DejaVuSans-28" x="632.076172"/>
     <use xlink:href="#DejaVuSans-54" x="671.089844"/>
     <use xlink:href="#DejaVuSans-4d" x="732.173828"/>
     <use xlink:href="#DejaVuSans-29" x="818.453125"/>
     <use xlink:href="#DejaVuSans-20" x="857.466797"/>
     <use xlink:href="#DejaVuSans-69" x="889.253906"/>
     <use xlink:href="#DejaVuSans-37" x="917.037109"/>
     <use xlink:href="#DejaVuSans-2d" x="980.660156"/>
     <use xlink:href="#DejaVuSans-36" x="1016.744141"/>
     <use xlink:href="#DejaVuSans-37" x="1080.367188"/>
     <use xlink:href="#DejaVuSans-30" x="1143.990234"/>
     <use xlink:href="#DejaVuSans-30" x="1207.613281"/>
     <use xlink:href="#DejaVuSans-20" x="1271.236328"/>
     <use xlink:href="#DejaVuSans-43" x="1303.023438"/>
     <use xlink:href="#DejaVuSans-50" x="1372.847656"/>
     <use xlink:href="#DejaVuSans-55" x="1433.150391"/>
     <use xlink:href="#DejaVuSans-20" x="1506.34375"/>
     <use xlink:href="#DejaVuSans-40" x="1538.130859"/>
     <use xlink:href="#DejaVuSans-20" x="1638.130859"/>
     <use xlink:href="#DejaVuSans-33" x="1669.917969"/>
     <use xlink:href="#DejaVuSans-2e" x="1733.541016"/>
     <use xlink:href="#DejaVuSans-34" x="1765.328125"/>
     <use xlink:href="#DejaVuSans-30" x="1828.951172"/>
     <use xlink:href="#DejaVuSans-47" x="1892.574219"/>
     <use xlink:href="#DejaVuSans-48" x="1970.064453"/>
     <use xlink:href="#DejaVuSans-7a" x="2045.259766"/>
    </g>
   </g>
   <g id="PathCollection_6">
    <defs>
     <path id="ma6f70fe280" d="M 0 3.535534 
C 0.937635 3.535534 1.836992 3.163008 2.5 2.5 
C 3.163008 1.836992 3.535534 0.937635 3.535534 0 
C 3.535534 -0.937635 3.163008 -1.836992 2.5 -2.5 
C 1.836992 -3.163008 0.937635 -3.535534 0 -3.535534 
C -0.937635 -3.535534 -1.836992 -3.163008 -2.5 -2.5 
C -3.163008 -1.836992 -3.535534 -0.937635 -3.535534 0 
C -3.535534 0.937635 -3.163008 1.836992 -2.5 2.5 
C -1.836992 3.163008 -0.937635 3.535534 0 3.535534 
z
" style="stroke: #0000ff"/>
    </defs>
    <g clip-path="url(#pd684ce8b81)">
     <use xlink:href="#ma6f70fe280" x="149.972727" y="518.636076" style="fill: #0000ff; stroke: #0000ff"/>
     <use xlink:href="#ma6f70fe280" x="193.936364" y="488.740235" style="fill: #0000ff; stroke: #0000ff"/>
     <use xlink:href="#ma6f70fe280" x="237.9" y="478.897188" style="fill: #0000ff; stroke: #0000ff"/>
     <use xlink:href="#ma6f70fe280" x="281.863636" y="439.347316" style="fill: #0000ff; stroke: #0000ff"/>
     <use xlink:href="#ma6f70fe280" x="325.827273" y="434.014261" style="fill: #0000ff; stroke: #0000ff"/>
     <use xlink:href="#ma6f70fe280" x="369.790909" y="444.924796" style="fill: #0000ff; stroke: #0000ff"/>
     <use xlink:href="#ma6f70fe280" x="413.754545" y="429.930588" style="fill: #0000ff; stroke: #0000ff"/>
     <use xlink:href="#ma6f70fe280" x="457.718182" y="480.852782" style="fill: #0000ff; stroke: #0000ff"/>
     <use xlink:href="#ma6f70fe280" x="501.681818" y="480.391749" style="fill: #0000ff; stroke: #0000ff"/>
     <use xlink:href="#ma6f70fe280" x="545.645455" y="416.631834" style="fill: #0000ff; stroke: #0000ff"/>
     <use xlink:href="#ma6f70fe280" x="589.609091" y="458.192329" style="fill: #0000ff; stroke: #0000ff"/>
     <use xlink:href="#ma6f70fe280" x="633.572727" y="386.486867" style="fill: #0000ff; stroke: #0000ff"/>
     <use xlink:href="#ma6f70fe280" x="677.536364" y="353.328432" style="fill: #0000ff; stroke: #0000ff"/>
     <use xlink:href="#ma6f70fe280" x="721.5" y="387.270595" style="fill: #0000ff; stroke: #0000ff"/>
     <use xlink:href="#ma6f70fe280" x="765.463636" y="426.21" style="fill: #0000ff; stroke: #0000ff"/>
     <use xlink:href="#ma6f70fe280" x="809.427273" y="466.603643" style="fill: #0000ff; stroke: #0000ff"/>
    </g>
   </g>
   <g id="legend_1">
    <g id="patch_7">
     <path d="M 851.4 374.774375 
L 924.465625 374.774375 
Q 926.465625 374.774375 926.465625 372.774375 
L 926.465625 285.705625 
Q 926.465625 283.705625 924.465625 283.705625 
L 851.4 283.705625 
Q 849.4 283.705625 849.4 285.705625 
L 849.4 372.774375 
Q 849.4 374.774375 851.4 374.774375 
z
" style="fill: #4c4c4c; opacity: 0.5; stroke: #4c4c4c; stroke-linejoin: miter"/>
    </g>
    <g id="patch_8">
     <path d="M 849.4 372.774375 
L 922.465625 372.774375 
Q 924.465625 372.774375 924.465625 370.774375 
L 924.465625 283.705625 
Q 924.465625 281.705625 922.465625 281.705625 
L 849.4 281.705625 
Q 847.4 281.705625 847.4 283.705625 
L 847.4 370.774375 
Q 847.4 372.774375 849.4 372.774375 
z
" style="fill: #ffffff; stroke: #cccccc; stroke-linejoin: miter"/>
    </g>
    <g id="line2d_49">
     <path d="M 851.4 289.804063 
L 861.4 289.804063 
L 871.4 289.804063 
" style="fill: none; stroke: #ff0000; stroke-width: 5; stroke-linecap: square"/>
    </g>
    <g id="text_25">
     <!-- Average -->
     <g transform="translate(879.4 293.304063)scale(0.1 -0.1)">
      <defs>
       <path id="DejaVuSans-41" d="M 2188 4044 
L 1331 1722 
L 3047 1722 
L 2188 4044 
z
M 1831 4666 
L 2547 4666 
L 4325 0 
L 3669 0 
L 3244 1197 
L 1141 1197 
L 716 0 
L 50 0 
L 1831 4666 
z
" transform="scale(0.015625)"/>
       <path id="DejaVuSans-76" d="M 191 3500 
L 800 3500 
L 1894 563 
L 2988 3500 
L 3597 3500 
L 2284 0 
L 1503 0 
L 191 3500 
z
" transform="scale(0.015625)"/>
       <path id="DejaVuSans-67" d="M 2906 1791 
Q 2906 2416 2648 2759 
Q 2391 3103 1925 3103 
Q 1463 3103 1205 2759 
Q 947 2416 947 1791 
Q 947 1169 1205 825 
Q 1463 481 1925 481 
Q 2391 481 2648 825 
Q 2906 1169 2906 1791 
z
M 3481 434 
Q 3481 -459 3084 -895 
Q 2688 -1331 1869 -1331 
Q 1566 -1331 1297 -1286 
Q 1028 -1241 775 -1147 
L 775 -588 
Q 1028 -725 1275 -790 
Q 1522 -856 1778 -856 
Q 2344 -856 2625 -561 
Q 2906 -266 2906 331 
L 2906 616 
Q 2728 306 2450 153 
Q 2172 0 1784 0 
Q 1141 0 747 490 
Q 353 981 353 1791 
Q 353 2603 747 3093 
Q 1141 3584 1784 3584 
Q 2172 3584 2450 3431 
Q 2728 3278 2906 2969 
L 2906 3500 
L 3481 3500 
L 3481 434 
z
" transform="scale(0.015625)"/>
      </defs>
      <use xlink:href="#DejaVuSans-41"/>
      <use xlink:href="#DejaVuSans-76" x="62.533203"/>
      <use xlink:href="#DejaVuSans-65" x="121.712891"/>
      <use xlink:href="#DejaVuSans-72" x="183.236328"/>
      <use xlink:href="#DejaVuSans-61" x="224.349609"/>
      <use xlink:href="#DejaVuSans-67" x="285.628906"/>
      <use xlink:href="#DejaVuSans-65" x="349.105469"/>
     </g>
    </g>
    <g id="line2d_50">
     <path d="M 851.4 304.482188 
L 861.4 304.482188 
L 871.4 304.482188 
" style="fill: none; stroke: #1f77b4; stroke-linecap: square"/>
    </g>
    <g id="text_26">
     <!-- Test 1 -->
     <g transform="translate(879.4 307.982188)scale(0.1 -0.1)">
      <use xlink:href="#DejaVuSans-54"/>
      <use xlink:href="#DejaVuSans-65" x="44.083984"/>
      <use xlink:href="#DejaVuSans-73" x="105.607422"/>
      <use xlink:href="#DejaVuSans-74" x="157.707031"/>
      <use xlink:href="#DejaVuSans-20" x="196.916016"/>
      <use xlink:href="#DejaVuSans-31" x="228.703125"/>
     </g>
    </g>
    <g id="line2d_51">
     <path d="M 851.4 319.160313 
L 861.4 319.160313 
L 871.4 319.160313 
" style="fill: none; stroke: #ff7f0e; stroke-linecap: square"/>
    </g>
    <g id="text_27">
     <!-- Test 2 -->
     <g transform="translate(879.4 322.660313)scale(0.1 -0.1)">
      <use xlink:href="#DejaVuSans-54"/>
      <use xlink:href="#DejaVuSans-65" x="44.083984"/>
      <use xlink:href="#DejaVuSans-73" x="105.607422"/>
      <use xlink:href="#DejaVuSans-74" x="157.707031"/>
      <use xlink:href="#DejaVuSans-20" x="196.916016"/>
      <use xlink:href="#DejaVuSans-32" x="228.703125"/>
     </g>
    </g>
    <g id="line2d_52">
     <path d="M 851.4 333.838438 
L 861.4 333.838438 
L 871.4 333.838438 
" style="fill: none; stroke: #2ca02c; stroke-linecap: square"/>
    </g>
    <g id="text_28">
     <!-- Test 3 -->
     <g transform="translate(879.4 337.338438)scale(0.1 -0.1)">
      <use xlink:href="#DejaVuSans-54"/>
      <use xlink:href="#DejaVuSans-65" x="44.083984"/>
      <use xlink:href="#DejaVuSans-73" x="105.607422"/>
      <use xlink:href="#DejaVuSans-74" x="157.707031"/>
      <use xlink:href="#DejaVuSans-20" x="196.916016"/>
      <use xlink:href="#DejaVuSans-33" x="228.703125"/>
     </g>
    </g>
    <g id="line2d_53">
     <path d="M 851.4 348.516563 
L 861.4 348.516563 
L 871.4 348.516563 
" style="fill: none; stroke: #d62728; stroke-linecap: square"/>
    </g>
    <g id="text_29">
     <!-- Test 4 -->
     <g transform="translate(879.4 352.016563)scale(0.1 -0.1)">
      <use xlink:href="#DejaVuSans-54"/>
      <use xlink:href="#DejaVuSans-65" x="44.083984"/>
      <use xlink:href="#DejaVuSans-73" x="105.607422"/>
      <use xlink:href="#DejaVuSans-74" x="157.707031"/>
      <use xlink:href="#DejaVuSans-20" x="196.916016"/>
      <use xlink:href="#DejaVuSans-34" x="228.703125"/>
     </g>
    </g>
    <g id="line2d_54">
     <path d="M 851.4 363.194688 
L 861.4 363.194688 
L 871.4 363.194688 
" style="fill: none; stroke: #9467bd; stroke-linecap: square"/>
    </g>
    <g id="text_30">
     <!-- Test 5 -->
     <g transform="translate(879.4 366.694688)scale(0.1 -0.1)">
      <use xlink:href="#DejaVuSans-54"/>
      <use xlink:href="#DejaVuSans-65" x="44.083984"/>
      <use xlink:href="#DejaVuSans-73" x="105.607422"/>
      <use xlink:href="#DejaVuSans-74" x="157.707031"/>
      <use xlink:href="#DejaVuSans-20" x="196.916016"/>
      <use xlink:href="#DejaVuSans-35" x="228.703125"/>
     </g>
    </g>
   </g>
  </g>
 </g>
 <defs>
  <clipPath id="pd684ce8b81">
   <rect x="117" y="77.76" width="725.4" height="498.96"/>
  </clipPath>
 </defs>
</svg>
